<?xml version="1.0" encoding="UTF-8" standalone="no"?>
<svg
   class="svg"
   viewBox="0 0 816 1056"
   version="1.1"
   id="svg688"
   sodipodi:docname="1.svg"
   width="8.5in"
   height="11in"
   inkscape:version="1.3 (0e150ed, 2023-07-21)"
   xmlns:inkscape="http://www.inkscape.org/namespaces/inkscape"
   xmlns:sodipodi="http://sodipodi.sourceforge.net/DTD/sodipodi-0.dtd"
   xmlns="http://www.w3.org/2000/svg"
   xmlns:svg="http://www.w3.org/2000/svg">
  <defs
     id="defs688" />
  <sodipodi:namedview
     id="namedview688"
     pagecolor="#ffffff"
     bordercolor="#000000"
     borderopacity="0.25"
     inkscape:showpageshadow="2"
     inkscape:pageopacity="0.0"
     inkscape:pagecheckerboard="0"
     inkscape:deskcolor="#d1d1d1"
     inkscape:zoom="0.93681613"
     inkscape:cx="369.33608"
     inkscape:cy="540.12734"
     inkscape:window-width="1728"
     inkscape:window-height="1051"
     inkscape:window-x="0"
     inkscape:window-y="38"
     inkscape:window-maximized="0"
     inkscape:current-layer="5-gray"
     inkscape:document-units="in" />
  <!-- http://localhost:1234/#/true/1450/1/1000/deep/joined/0.73,0.15,0.87,0.62 -->
  <g
     id="g688"
     transform="scale(0.37795276)">
    <rect
       x="0"
       y="0"
       width="1450"
       height="1450"
       fill="currentColor"
       id="rect1" />
    <g
       id="5-gray"
       stroke-width="6"
       stroke-linecap="round"
       stroke-linejoin="round"
       stroke="#909090">
      <path
         d="m 340.6831,551.55935 q -0.002,-0.003 -0.003,-0.006"
         id="path2" />
      <path
         d="m 375.55696,338.14457 q 0.002,-0.0153 0.004,-0.0307"
         id="path3" />
      <path
         d="m 392.11764,313.16246 q 0.006,-0.0192 0.0122,-0.0383"
         id="path4" />
      <path
         d="m 384.75548,370.80285 q 8.5e-4,-0.011 0.002,-0.022"
         id="path5" />
      <path
         d="m 422.57364,272.17999 q 0.007,-0.0102 0.0146,-0.0204"
         id="path6" />
      <path
         d="m 372.41735,400.65635 q -8.4e-4,-0.0125 -0.002,-0.025"
         id="path7" />
      <path
         d="m 488.59407,193.76909 q 0.0371,-0.0114 0.0742,-0.0228"
         id="path8" />
      <path
         d="m 515.27571,164.82201 q 0.0916,-0.007 0.18325,-0.0136"
         id="path9" />
      <path
         d="m 537.98382,160.65373 q 0.0343,0.003 0.0685,0.005"
         id="path10" />
      <path
         d="m 450.82843,251.99801 q 0.0183,-0.0157 0.0366,-0.0314"
         id="path11" />
      <path
         d="m 456.32549,211.20168 q 0.036,-0.0216 0.072,-0.0431"
         id="path12" />
      <path
         d="m 331.75386,510.99112 q -0.003,-0.006 -0.005,-0.0117"
         id="path13" />
      <path
         d="m 365.97208,450.31787 q -0.002,-0.007 -0.003,-0.0138"
         id="path14" />
      <path
         d="m 328.94993,477.25912 q -0.005,-0.0136 -0.01,-0.0272"
         id="path15" />
      <path
         d="m 309.38953,609.98062 q -0.005,-0.009 -0.0104,-0.0189"
         id="path16" />
      <path
         d="m 316.84602,650.33329 q -0.003,-0.006 -0.007,-0.0128"
         id="path17" />
      <path
         d="m 304.79538,542.78906 q -0.007,-0.0146 -0.0141,-0.0293"
         id="path18" />
      <path
         d="m 310.4395,572.7766 q -0.005,-0.01 -0.0107,-0.0201"
         id="path19" />
      <path
         d="m 308.97635,685.52271 q -0.004,-0.008 -0.007,-0.0169"
         id="path20" />
      <path
         d="m 334.69962,793.61247 q -2.4e-4,-0.007 -4.7e-4,-0.0131"
         id="path21" />
      <path
         d="m 362.30238,310.46196 q 0.01,-0.053 0.0196,-0.10603"
         id="path22" />
      <path
         d="m 345.61791,331.38703 q 0.002,-0.0349 0.004,-0.0698"
         id="path23" />
      <path
         d="m 390.7357,283.76071 q 0.0106,-0.0244 0.0212,-0.0488"
         id="path24" />
      <path
         d="m 353.19588,364.06583 q -5.2e-4,-0.0218 -10e-4,-0.0436"
         id="path25" />
      <path
         d="m 407.56089,244.27785 q 0.039,-0.0518 0.0781,-0.10357"
         id="path26" />
      <path
         d="m 348.34999,421.26968 q -0.008,-0.038 -0.0152,-0.0761"
         id="path27" />
      <path
         d="m 341.18218,395.31674 q -0.003,-0.0222 -0.006,-0.0444"
         id="path28" />
      <path
         d="m 482.06375,168.48232 q 0.27777,-0.0787 0.55566,-0.15687"
         id="path29" />
      <path
         d="m 466.21243,180.31071 q 0.22774,-0.0942 0.45561,-0.18815"
         id="path30" />
      <path
         d="m 494.82034,158.05213 q 0.0199,-0.004 0.0398,-0.007"
         id="path31" />
      <path
         d="m 430.6743,231.79526 q 0.0489,-0.046 0.0978,-0.0919"
         id="path32" />
      <path
         d="m 446.56903,187.4166 q 0.24634,-0.14036 0.49293,-0.2803"
         id="path33" />
      <path
         d="m 431.04895,206.50964 q 0.12248,-0.0955 0.24506,-0.19087"
         id="path34" />
      <path
         d="m 332.56849,442.86945 q -0.009,-0.0307 -0.0173,-0.0614"
         id="path35" />
      <path
         d="m 305.72363,456.70025 q -0.006,-0.0192 -0.0122,-0.0383"
         id="path36" />
      <path
         d="m 301.93861,492.5076 q -0.007,-0.0176 -0.0135,-0.0353"
         id="path37" />
      <path
         d="m 356.84876,873.25681 q 9.8e-4,-0.008 0.002,-0.0164"
         id="path38" />
      <path
         d="m 279.10041,598.5599 q -0.0127,-0.0256 -0.0254,-0.0513"
         id="path39" />
      <path
         d="m 284.42287,630.58474 q -0.007,-0.0135 -0.014,-0.027"
         id="path40" />
      <path
         d="m 285.41928,663.76578 q -0.006,-0.0127 -0.0125,-0.0254"
         id="path41" />
      <path
         d="m 277.49904,529.25703 q -0.008,-0.0196 -0.0153,-0.0392"
         id="path42" />
      <path
         d="m 278.10888,557.48725 q -0.0113,-0.0258 -0.0226,-0.0516"
         id="path43" />
      <path
         d="m 301.20258,740.44865 q -0.002,-0.008 -0.005,-0.0164"
         id="path44" />
      <path
         d="m 280.65523,702.61141 q -0.006,-0.0134 -0.011,-0.0267"
         id="path45" />
      <path
         d="m 301.2568,802.30713 q -0.006,-0.0497 -0.0111,-0.0995"
         id="path46" />
      <path
         d="m 306.84342,773.16616 q -0.003,-0.0175 -0.006,-0.0349"
         id="path47" />
      <path
         d="m 330.04693,827.85238 q 1.7e-4,-0.0116 3.3e-4,-0.0231"
         id="path48" />
      <path
         d="m 354.9154,287.21449 q 0.0138,-0.0579 0.0276,-0.11583"
         id="path49" />
      <path
         d="m 338.2046,306.6792 q 0.006,-0.0618 0.0127,-0.12367"
         id="path50" />
      <path
         d="m 323.47775,346.23696 q -0.002,-0.0426 -0.005,-0.0852"
         id="path51" />
      <path
         d="m 379.47046,258.08195 q 0.0362,-0.0744 0.0724,-0.14877"
         id="path52" />
      <path
         d="m 325.54033,372.92835 q -0.004,-0.0341 -0.008,-0.0683"
         id="path53" />
      <path
         d="m 404.65342,221.04714 q 0.0787,-0.0897 0.15742,-0.1793"
         id="path54" />
      <path
         d="m 386.93334,233.20429 q 0.078,-0.11752 0.15614,-0.23499"
         id="path55" />
      <path
         d="m 322.52125,417.40418 q -0.008,-0.0324 -0.015,-0.0648"
         id="path56" />
      <path
         d="m 413.70403,199.47509 q 0.0343,-0.0304 0.0686,-0.0607"
         id="path57" />
      <path
         d="m 277.2739,449.1514 q -0.0102,-0.0379 -0.0205,-0.0758"
         id="path58" />
      <path
         d="m 277.14487,476.08031 q -0.007,-0.0244 -0.0149,-0.0489"
         id="path59" />
      <path
         d="m 393.2599,1006.3489 q -7.1e-4,-0.011 -0.001,-0.022"
         id="path60" />
      <path
         d="m 367.53571,971.69565 q -10e-4,-0.0176 -0.003,-0.0351"
         id="path61" />
      <path
         d="m 342.76601,949.31583 q -0.009,-0.096 -0.0189,-0.19196"
         id="path62" />
      <path
         d="m 334.9087,908.65254 q -4.8e-4,-0.0433 -9.5e-4,-0.0866"
         id="path63" />
      <path
         d="m 327.98119,856.11493 q 9e-4,-0.0369 0.002,-0.0737"
         id="path64" />
      <path
         d="m 325.4926,885.25565 q -1.7e-4,-0.0485 -3.4e-4,-0.0971"
         id="path65" />
      <path
         d="m 253.75298,587.44825 q -0.0176,-0.0444 -0.0351,-0.0888"
         id="path66" />
      <path
         d="m 256.30432,614.25382 q -0.0151,-0.0343 -0.0302,-0.0686"
         id="path67" />
      <path
         d="m 258.00767,646.39582 q -0.009,-0.0191 -0.0177,-0.0381"
         id="path68" />
      <path
         d="m 256.28248,674.67736 q -0.0129,-0.0286 -0.0258,-0.0573"
         id="path69" />
      <path
         d="m 258.36997,507.17185 q -0.007,-0.0253 -0.0146,-0.0506"
         id="path70" />
      <path
         d="m 248.64946,533.88063 q -0.012,-0.0417 -0.024,-0.0835"
         id="path71" />
      <path
         d="m 250.6027,561.21089 q -0.0114,-0.0337 -0.0229,-0.0674"
         id="path72" />
      <path
         d="m 269.2602,730.55832 q -0.006,-0.0175 -0.0123,-0.035"
         id="path73" />
      <path
         d="m 275.27517,761.56509 q -0.007,-0.0273 -0.0145,-0.0546"
         id="path74" />
      <path
         d="m 249.80232,705.80924 q -0.0107,-0.0261 -0.0213,-0.0521"
         id="path75" />
      <path
         d="m 277.07716,807.7583 q -0.008,-0.0493 -0.0168,-0.0987"
         id="path76" />
      <path
         d="m 296.22179,826.57684 q -0.007,-0.0735 -0.0135,-0.14693"
         id="path77" />
      <path
         d="m 349.55743,263.9561 q 0.0314,-0.10269 0.0629,-0.20535"
         id="path78" />
      <path
         d="m 331.05174,286.78252 q 0.0142,-0.0989 0.0285,-0.19776"
         id="path79" />
      <path
         d="m 321.34205,323.24498 q -1.3e-4,-0.0765 -2.4e-4,-0.1529"
         id="path80" />
      <path
         d="m 315.41663,300.39595 q 0.005,-0.10684 0.0101,-0.21366"
         id="path81" />
      <path
         d="m 298.3179,341.40977 q -0.008,-0.0761 -0.0153,-0.15219"
         id="path82" />
      <path
         d="m 365.1123,241.26735 q 0.0763,-0.15672 0.15269,-0.31336"
         id="path83" />
      <path
         d="m 305.08124,390.14479 q -0.006,-0.0294 -0.0112,-0.0588"
         id="path84" />
      <path
         d="m 295.64142,418.71485 q -0.006,-0.0263 -0.0129,-0.0526"
         id="path85" />
      <path
         d="m 251.70004,454.13225 q -0.0233,-0.10925 -0.0466,-0.2185"
         id="path86" />
      <path
         d="m 256.20873,433.81876 q -0.0103,-0.0485 -0.0206,-0.0971"
         id="path87" />
      <path
         d="m 249.06253,479.11432 q -0.009,-0.0408 -0.0183,-0.0817"
         id="path88" />
      <path
         d="m 389.10929,1038.3764 q -0.004,-0.019 -0.007,-0.037"
         id="path89" />
      <path
         d="m 361.46242,1011.9975 q -0.0115,-0.044 -0.0229,-0.088"
         id="path90" />
      <path
         d="m 346.55678,993.25231 q -0.0278,-0.10792 -0.0555,-0.21585"
         id="path91" />
      <path
         d="m 337.49461,970.16681 q -0.0176,-0.0877 -0.0353,-0.17545"
         id="path92" />
      <path
         d="m 356.88101,933.38313 q 2.2e-4,-0.0227 4.4e-4,-0.0455"
         id="path93" />
      <path
         d="m 326.70031,935.35239 q -0.002,-0.0144 -0.003,-0.0287"
         id="path94" />
      <path
         d="m 309.45118,910.77619 q -0.008,-0.0719 -0.0161,-0.14384"
         id="path95" />
      <path
         d="m 301.72961,858.69405 q -0.004,-0.0569 -0.007,-0.11374"
         id="path96" />
      <path
         d="m 300.55976,884.42531 q -0.006,-0.0616 -0.0113,-0.12319"
         id="path97" />
      <path
         d="m 229.41947,593.31376 q -0.0149,-0.0499 -0.0298,-0.0999"
         id="path98" />
      <path
         d="m 236.35761,631.39402 q -0.0173,-0.0445 -0.0346,-0.089"
         id="path99" />
      <path
         d="m 233.54131,662.36683 q -0.0198,-0.0485 -0.0396,-0.0971"
         id="path100" />
      <path
         d="m 230.43347,510.11343 q -0.009,-0.0516 -0.0179,-0.10321"
         id="path101" />
      <path
         d="m 224.56204,542.33503 q -0.0132,-0.0714 -0.0264,-0.14274"
         id="path102" />
      <path
         d="m 224.90481,567.93652 q -0.0126,-0.0551 -0.0253,-0.11024"
         id="path103" />
      <path
         d="m 240.03364,736.53518 q -0.022,-0.0605 -0.0441,-0.12105"
         id="path104" />
      <path
         d="m 249.35702,771.45276 q -0.0329,-0.1117 -0.0658,-0.2234"
         id="path105" />
      <path
         d="m 223.77076,696.17527 q -0.0266,-0.0675 -0.0533,-0.13503"
         id="path106" />
      <path
         d="m 263.38554,828.42009 q -0.0257,-0.13277 -0.0513,-0.26553"
         id="path107" />
      <path
         d="m 252.37511,805.7141 q -0.0341,-0.14079 -0.0681,-0.28156"
         id="path108" />
      <path
         d="m 261.91064,788.15355 q -0.0164,-0.0686 -0.0328,-0.13712"
         id="path109" />
      <path
         d="m 281.43493,843.83262 q -0.0115,-0.0886 -0.0231,-0.17718"
         id="path110" />
      <path
         d="m 385.1444,1071.0634 q -0.0129,-0.044 -0.0259,-0.087"
         id="path111" />
      <path
         d="m 329.31872,268.33406 q 0.041,-0.20145 0.0822,-0.40286"
         id="path112" />
      <path
         d="m 314.00833,274.34981 q 0.0445,-0.35444 0.0895,-0.70881"
         id="path113" />
      <path
         d="m 299.20335,319.04289 q -0.005,-0.0987 -0.009,-0.19747"
         id="path114" />
      <path
         d="m 296.74327,291.39665 q 0.005,-0.284 0.0105,-0.568"
         id="path115" />
      <path
         d="m 276.37366,336.29868 q -0.0144,-0.11438 -0.0287,-0.22876"
         id="path116" />
      <path
         d="m 288.55251,361.7152 q -0.0156,-0.10133 -0.0311,-0.20267"
         id="path117" />
      <path
         d="m 348.42593,248.27204 q 0.11416,-0.30999 0.22884,-0.61979"
         id="path118" />
      <path
         d="m 278.95312,398.54494 q -0.0116,-0.0552 -0.0232,-0.11033"
         id="path119" />
      <path
         d="m 231.2082,453.848 q -0.013,-0.0884 -0.0259,-0.17685"
         id="path120" />
      <path
         d="m 241.76419,413.6242 q -0.0361,-0.20661 -0.0722,-0.41322"
         id="path121" />
      <path
         d="m 259.67915,409.23378 q -0.0185,-0.0909 -0.0371,-0.18188"
         id="path122" />
      <path
         d="m 231.38075,433.6289 q -0.0264,-0.17864 -0.0528,-0.35727"
         id="path123" />
      <path
         d="m 223.58009,482.62851 q -0.008,-0.0691 -0.017,-0.1383"
         id="path124" />
      <path
         d="m 360.55906,1046.5843 q -0.0311,-0.077 -0.0623,-0.154"
         id="path125" />
      <path
         d="m 336.70445,1017.0966 q -0.0466,-0.1103 -0.0932,-0.2206"
         id="path126" />
      <path
         d="m 326.24984,996.11197 q -0.0229,-0.061 -0.0457,-0.12208"
         id="path127" />
      <path
         d="m 315.8413,968.92414 q -0.0444,-0.15065 -0.0887,-0.30132"
         id="path128" />
      <path
         d="m 295.83957,938.47373 q -0.0521,-0.20379 -0.1042,-0.40761"
         id="path129" />
      <path
         d="m 287.14352,915.6197 q -0.0393,-0.18276 -0.0785,-0.36552"
         id="path130" />
      <path
         d="m 280.09681,872.5397 q -0.0192,-0.12676 -0.0384,-0.25352"
         id="path131" />
      <path
         d="m 205.7809,600.0255 q -0.0276,-0.14122 -0.0551,-0.28244"
         id="path132" />
      <path
         d="m 216.90996,615.63607 q -0.0225,-0.0796 -0.0451,-0.15927"
         id="path133" />
      <path
         d="m 217.53967,647.89884 q -0.0358,-0.10422 -0.0715,-0.20845"
         id="path134" />
      <path
         d="m 210.19402,669.93408 q -0.0446,-0.1277 -0.0892,-0.25542"
         id="path135" />
      <path
         d="m 207.58903,501.13458 q -0.005,-0.0853 -0.009,-0.17066"
         id="path136" />
      <path
         d="m 210.41599,524.31868 q -0.009,-0.0985 -0.0171,-0.19696"
         id="path137" />
      <path
         d="m 201.8762,544.73052 q -0.006,-0.0987 -0.0129,-0.19736"
         id="path138" />
      <path
         d="m 200.7842,566.95926 q -0.0171,-0.17499 -0.0341,-0.34998"
         id="path139" />
      <path
         d="m 219.58393,748.00901 q -0.087,-0.23713 -0.17395,-0.47425"
         id="path140" />
      <path
         d="m 220.4508,723.63743 q -0.0623,-0.16278 -0.12455,-0.32556"
         id="path141" />
      <path
         d="m 232.18415,758.631 q -0.0409,-0.11972 -0.0819,-0.23944"
         id="path142" />
      <path
         d="m 240.36109,789.61741 q -0.0653,-0.22536 -0.13064,-0.4507"
         id="path143" />
      <path
         d="m 229.63933,776.15318 q -0.0685,-0.20926 -0.13697,-0.41849"
         id="path144" />
      <path
         d="m 205.43381,709.74516 q -0.11298,-0.30292 -0.22588,-0.60587"
         id="path145" />
      <path
         d="m 203.50359,685.70495 q -0.0695,-0.19834 -0.13898,-0.3967"
         id="path146" />
      <path
         d="m 249.48163,842.04038 q -0.0452,-0.18756 -0.0904,-0.37512"
         id="path147" />
      <path
         d="m 245.59126,820.53372 q -0.0731,-0.28878 -0.14631,-0.57753"
         id="path148" />
      <path
         d="m 233.75089,809.91922 q -0.0318,-0.10832 -0.0636,-0.21664"
         id="path149" />
      <path
         d="m 265.75946,858.83496 q -0.0301,-0.15746 -0.0602,-0.31493"
         id="path150" />
      <path
         d="m 464.38678,1187.4279 q 0.0222,-0.022 0.0443,-0.044"
         id="path151" />
      <path
         d="m 450.63361,1161.9808 q 0.002,0 0.004,-0.01"
         id="path152" />
      <path
         d="m 495.41517,1201.3195 q 0.006,0 0.0121,0"
         id="path153" />
      <path
         d="m 422.33155,1114.9023 q 8.5e-4,-0.069 0.002,-0.1372"
         id="path154" />
      <path
         d="m 429.75632,1141.4163 q 0.006,-0.037 0.0116,-0.074"
         id="path155" />
      <path
         d="m 525.97711,1249.2623 q 0.0687,0.031 0.13736,0.062"
         id="path156" />
      <path
         d="m 504.54324,1237.0792 q 0.0183,0 0.0367,0"
         id="path157" />
      <path
         d="m 375.48303,1094.4409 q -0.0151,-0.036 -0.0302,-0.073"
         id="path158" />
      <path
         d="m 403.58027,1088.383 q -0.004,-0.024 -0.008,-0.048"
         id="path159" />
      <path
         d="m 359.9725,1068.568 q -0.0389,-0.08 -0.0778,-0.1595"
         id="path160" />
      <path
         d="m 284.12834,304.20393 q -0.0152,-0.32137 -0.0302,-0.64276"
         id="path161" />
      <path
         d="m 278.05973,319.67392 q -0.0251,-0.26977 -0.0501,-0.53956"
         id="path162" />
      <path
         d="m 263.6242,352.12674 q -0.0165,-0.10345 -0.0331,-0.2069"
         id="path163" />
      <path
         d="m 272.9613,375.71843 q -0.0191,-0.10455 -0.0382,-0.20911"
         id="path164" />
      <path
         d="m 212.98711,442.07153 q -0.017,-0.20352 -0.034,-0.40704"
         id="path165" />
      <path
         d="m 210.57187,460.54391 q -0.0147,-0.22594 -0.0294,-0.45187"
         id="path166" />
      <path
         d="m 247.16312,397.3942 q -0.0443,-0.24378 -0.0886,-0.48757"
         id="path167" />
      <path
         d="m 225.99047,407.00975 q -0.0525,-0.36895 -0.10499,-0.7379"
         id="path168" />
      <path
         d="m 215.89793,424.63293 q -0.0273,-0.26047 -0.0546,-0.52094"
         id="path169" />
      <path
         d="m 200.83592,479.00589 q -0.003,-0.22711 -0.007,-0.45421"
         id="path170" />
      <path
         d="m 342.20692,1058.8739 q -0.0842,-0.1425 -0.1684,-0.285"
         id="path171" />
      <path
         d="m 339.52493,1039.8464 q -0.0497,-0.096 -0.0993,-0.1914"
         id="path172" />
      <path
         d="m 321.75828,1030.5634 q -0.087,-0.1473 -0.1739,-0.2947"
         id="path173" />
      <path
         d="m 309.10661,1012.0189 q -0.10552,-0.1882 -0.21096,-0.3764"
         id="path174" />
      <path
         d="m 305.60314,985.12862 q -0.065,-0.15266 -0.12989,-0.30534"
         id="path175" />
      <path
         d="m 309.85488,951.25339 q -0.0304,-0.12404 -0.0607,-0.2481"
         id="path176" />
      <path
         d="m 297.82274,964.08429 q -0.0649,-0.1816 -0.12979,-0.36324"
         id="path177" />
      <path
         d="m 279.34228,942.93057 q -0.0984,-0.28119 -0.19652,-0.56243"
         id="path178" />
      <path
         d="m 270.19068,910.45798 q -0.0641,-0.23558 -0.12813,-0.47119"
         id="path179" />
      <path
         d="m 273.86129,927.35105 q -0.0899,-0.28738 -0.17959,-0.57481"
         id="path180" />
      <path
         d="m 282.59379,898.49246 q -0.0237,-0.126 -0.0473,-0.25201"
         id="path181" />
      <path
         d="m 262.79773,882.07095 q -0.0427,-0.18239 -0.0853,-0.36479"
         id="path182" />
      <path
         d="m 195.47978,583.90705 q -0.0304,-0.29391 -0.0605,-0.58784"
         id="path183" />
      <path
         d="m 195.12651,615.91264 q -0.075,-0.42018 -0.14931,-0.84047"
         id="path184" />
      <path
         d="m 186.9156,603.19061 q -0.0417,-0.4068 -0.0828,-0.81366"
         id="path185" />
      <path
         d="m 203.68926,633.35608 q -0.0802,-0.30837 -0.16015,-0.61681"
         id="path186" />
      <path
         d="m 199.72887,658.18614 q -0.10931,-0.36939 -0.21823,-0.73889"
         id="path187" />
      <path
         d="m 197.21022,644.77366 q -0.11295,-0.43841 -0.2253,-0.87697"
         id="path188" />
      <path
         d="m 191.32079,674.68338 q -0.11975,-0.39972 -0.23908,-0.79956"
         id="path189" />
      <path
         d="m 188.65012,490.0649 q 0.012,-0.2386 0.024,-0.47719"
         id="path190" />
      <path
         d="m 186.67608,507.7579 q 0.0116,-0.19599 0.0232,-0.39198"
         id="path191" />
      <path
         d="m 182.675,535.86073 q 0.0137,-0.22527 0.0275,-0.45055"
         id="path192" />
      <path
         d="m 182.87323,554.01739 q 0.008,-0.23074 0.0151,-0.46147"
         id="path193" />
      <path
         d="m 206.79499,738.20411 q -0.13022,-0.34475 -0.26047,-0.68949"
         id="path194" />
      <path
         d="m 216.93528,763.90484 q -0.11504,-0.32047 -0.23018,-0.6409"
         id="path195" />
      <path
         d="m 202.42016,725.18553 q -0.15241,-0.40531 -0.30474,-0.81064"
         id="path196" />
      <path
         d="m 224.86754,795.31073 q -0.0666,-0.20526 -0.13326,-0.4105"
         id="path197" />
      <path
         d="m 214.04436,782.5223 q -0.12345,-0.34724 -0.24702,-0.69443"
         id="path198" />
      <path
         d="m 194.08054,700.22798 q -0.11634,-0.33476 -0.23248,-0.66958"
         id="path199" />
      <path
         d="m 191.34129,714.314 q -0.11451,-0.31876 -0.22888,-0.63757"
         id="path200" />
      <path
         d="m 239.62835,856.56539 q -0.0872,-0.30064 -0.1744,-0.60128"
         id="path201" />
      <path
         d="m 232.72369,836.82174 q -0.0745,-0.2485 -0.14894,-0.49699"
         id="path202" />
      <path
         d="m 215.35618,818.82481 q -0.10338,-0.29308 -0.20682,-0.58615"
         id="path203" />
      <path
         d="m 251.68356,870.91104 q -0.0809,-0.31055 -0.16178,-0.62111"
         id="path204" />
      <path
         d="m 533.26185,1290.5937 q 0.0346,0.049 0.0691,0.097"
         id="path205" />
      <path
         d="m 592.66482,1300.8803 q 0.005,0.025 0.0106,0.05"
         id="path206" />
      <path
         d="m 561.3095,1308.4361 q 0.0538,0.2198 0.10702,0.4398"
         id="path207" />
      <path
         d="m 623.9274,1304.3828 q 10e-4,0.01 0.003,0.018"
         id="path208" />
      <path
         d="m 468.88586,1214.2767 q 0.0543,-0.03 0.10867,-0.061"
         id="path209" />
      <path
         d="m 437.54303,1182.899 q 0.0388,-0.079 0.0776,-0.159"
         id="path210" />
      <path
         d="m 442.39479,1203.4732 q 0.061,-0.078 0.12194,-0.1566"
         id="path211" />
      <path
         d="m 414.54704,1164.792 q 0.006,-0.059 0.0111,-0.1176"
         id="path212" />
      <path
         d="m 404.88747,1130.0645 q -0.009,-0.072 -0.018,-0.1446"
         id="path213" />
      <path
         d="m 520.23436,1271.1248 q 0.15201,0.1086 0.30374,0.2175"
         id="path214" />
      <path
         d="m 539.54313,1267.343 q 0.0685,0.062 0.13686,0.1237"
         id="path215" />
      <path
         d="m 477.35399,1249.4155 q 0.15145,-0.01 0.30292,-0.018"
         id="path216" />
      <path
         d="m 495.36553,1265.4906 q 0.13291,0.044 0.26573,0.088"
         id="path217" />
      <path
         d="m 350.71113,1086.4175 q -0.10211,-0.1636 -0.20428,-0.3272"
         id="path218" />
      <path
         d="m 365.94116,1118.6685 q -0.0768,-0.1471 -0.15371,-0.2941"
         id="path219" />
      <path
         d="m 386.81874,1117.8828 q -0.0267,-0.085 -0.0534,-0.1692"
         id="path220" />
      <path
         d="m 252.77407,369.91959 q -0.0173,-0.0984 -0.0346,-0.19685"
         id="path221" />
      <path
         d="m 244.09033,359.38889 q -0.0706,-0.41703 -0.1412,-0.83406"
         id="path222" />
      <path
         d="m 196.28616,437.76636 q -0.009,-0.37156 -0.0176,-0.74312"
         id="path223" />
      <path
         d="m 194.06979,458.00466 q 0.002,-0.24161 0.003,-0.48321"
         id="path224" />
      <path
         d="m 233.58282,388.53096 q -0.018,-0.11035 -0.0359,-0.2207"
         id="path225" />
      <path
         d="m 212.1449,404.47406 q -0.0482,-0.43272 -0.0965,-0.86543"
         id="path226" />
      <path
         d="m 185.37057,472.75885 q 0.0234,-0.38515 0.0466,-0.7703"
         id="path227" />
      <path
         d="m 324.4441,1054.1755 q -0.17239,-0.2428 -0.34479,-0.4857"
         id="path228" />
      <path
         d="m 329.41079,1072.0592 q -0.12399,-0.1619 -0.24802,-0.3239"
         id="path229" />
      <path
         d="m 305.6045,1038.9405 q -0.12776,-0.1672 -0.2555,-0.3344"
         id="path230" />
      <path
         d="m 292.61814,1015.9656 q -0.14986,-0.2151 -0.29965,-0.4303"
         id="path231" />
      <path
         d="m 289.01052,992.99275 q -0.1384,-0.24494 -0.27668,-0.48996"
         id="path232" />
      <path
         d="m 289.3406,976.60279 q -0.13789,-0.29598 -0.27557,-0.59206"
         id="path233" />
      <path
         d="m 280.60665,960.65938 q -0.0815,-0.19085 -0.16294,-0.38175"
         id="path234" />
      <path
         d="m 257.77204,899.90799 q -0.0538,-0.18111 -0.10751,-0.36223"
         id="path235" />
      <path
         d="m 258.96663,930.31768 q -0.18235,-0.45977 -0.36431,-0.9197"
         id="path236" />
      <path
         d="m 245.26734,884.58642 q -0.0942,-0.29946 -0.18829,-0.59895"
         id="path237" />
      <path
         d="m 180.29243,585.64526 q -0.008,-0.41273 -0.0156,-0.82546"
         id="path238" />
      <path
         d="m 185.41907,625.11854 q -0.0749,-0.48822 -0.14906,-0.97656"
         id="path239" />
      <path
         d="m 185.82837,657.84138 q -0.10428,-0.43034 -0.20795,-0.86083"
         id="path240" />
      <path
         d="m 176.06991,569.15119 q 0.0148,-0.32629 0.0297,-0.65256"
         id="path241" />
      <path
         d="m 195.53486,746.74634 q -0.0304,-0.0795 -0.0608,-0.15891"
         id="path242" />
      <path
         d="m 201.68839,766.67171 q -0.13736,-0.36099 -0.27478,-0.72197"
         id="path243" />
      <path
         d="m 209.19786,801.77997 q -0.13608,-0.37116 -0.27226,-0.74227"
         id="path244" />
      <path
         d="m 200.5309,786.66315 q -0.13337,-0.34584 -0.2668,-0.69165"
         id="path245" />
      <path
         d="m 189.18258,728.72503 q -0.0607,-0.16339 -0.1213,-0.32679"
         id="path246" />
      <path
         d="m 224.67207,857.469 q -0.12293,-0.34742 -0.24585,-0.69484"
         id="path247" />
      <path
         d="m 232.23154,869.5959 q -0.11163,-0.32683 -0.22323,-0.65368"
         id="path248" />
      <path
         d="m 216.77951,837.78693 q -0.11097,-0.30719 -0.22198,-0.61436"
         id="path249" />
      <path
         d="m 203.84927,828.48042 q -0.15782,-0.39286 -0.31569,-0.78569"
         id="path250" />
      <path
         d="m 556.98028,1287.9967 q 0.0295,0.055 0.0589,0.1103"
         id="path251" />
      <path
         d="m 545.50165,1303.0522 q 0.0799,0.1948 0.15934,0.3899"
         id="path252" />
      <path
         d="m 577.06445,1313.973 q 0.014,0.1211 0.0279,0.2423"
         id="path253" />
      <path
         d="m 645.78753,1329.2462 q -9.6e-4,0.043 -0.002,0.086"
         id="path254" />
      <path
         d="m 458.84554,1235.6687 q 0.0932,-0.041 0.18636,-0.083"
         id="path255" />
      <path
         d="m 423.18895,1199.2399 q 0.0611,-0.1434 0.12224,-0.2868"
         id="path256" />
      <path
         d="m 438.28994,1224.2034 q 0.0688,-0.068 0.13755,-0.1353"
         id="path257" />
      <path
         d="m 400.69688,1184.2824 q 0.007,-0.1551 0.0138,-0.3103"
         id="path258" />
      <path
         d="m 390.82309,1167.7713 q -0.0198,-0.1351 -0.0398,-0.2702"
         id="path259" />
      <path
         d="m 383.8834,1138.9072 q -0.0343,-0.1092 -0.0687,-0.2184"
         id="path260" />
      <path
         d="m 476.09361,1268.2167 q 0.0951,0.014 0.19015,0.027"
         id="path261" />
      <path
         d="m 491.19185,1284.3141 q 0.25058,0.1361 0.50057,0.2732"
         id="path262" />
      <path
         d="m 334.60596,1093.3994 q -0.15634,-0.1931 -0.31279,-0.3861"
         id="path263" />
      <path
         d="m 358.21674,1102.2854 q -0.0886,-0.1507 -0.17728,-0.3013"
         id="path264" />
      <path
         d="m 353.84838,1132.486 q -0.11768,-0.1808 -0.23556,-0.3615"
         id="path265" />
      <path
         d="m 231.92479,373.12364 q -0.0767,-0.46739 -0.15343,-0.93479"
         id="path266" />
      <path
         d="m 182.49999,440.67546 q 9.9e-4,-0.0264 0.002,-0.0528"
         id="path267" />
      <path
         d="m 213.17591,390.37019 q -0.0151,-0.11835 -0.0301,-0.23669"
         id="path268" />
      <path
         d="m 309.70956,1058.0882 q -0.12209,-0.1412 -0.24419,-0.2823"
         id="path269" />
      <path
         d="m 312.33941,1074.5556 q -0.25591,-0.2687 -0.51195,-0.5373"
         id="path270" />
      <path
         d="m 320.85633,1087.0421 q -0.31851,-0.3413 -0.63733,-0.6822"
         id="path271" />
      <path
         d="m 290.30564,1046.5504 q -0.20078,-0.2094 -0.40157,-0.4189"
         id="path272" />
      <path
         d="m 277.75647,1010.2668 q -0.19444,-0.2553 -0.3888,-0.5107"
         id="path273" />
      <path
         d="m 283.94685,1029.3131 q -0.20064,-0.2313 -0.40125,-0.4625"
         id="path274" />
      <path
         d="m 274.94684,986.37123 q -0.12577,-0.20654 -0.25145,-0.41313"
         id="path275" />
      <path
         d="m 263.86404,964.42572 q -0.16797,-0.31111 -0.33574,-0.62232"
         id="path276" />
      <path
         d="m 240.14697,898.73289 q -0.15736,-0.41814 -0.31454,-0.83635"
         id="path277" />
      <path
         d="m 230.45307,886.73066 q -0.1318,-0.33858 -0.26353,-0.6772"
         id="path278" />
      <path
         d="m 178.15114,614.77986 q -0.0416,-0.48162 -0.0824,-0.9633"
         id="path279" />
      <path
         d="m 162.78823,483.49796 q 0.0182,-0.0925 0.0365,-0.18509"
         id="path280" />
      <path
         d="m 174.66632,739.90823 q -0.16899,-0.44578 -0.3377,-0.89167"
         id="path281" />
      <path
         d="m 183.90775,765.37605 q -0.0921,-0.22796 -0.18413,-0.45592"
         id="path282" />
      <path
         d="m 196.38264,806.82235 q -0.17989,-0.44149 -0.35986,-0.88296"
         id="path283" />
      <path
         d="m 188.62546,794.22452 q -0.165,-0.39364 -0.33003,-0.78726"
         id="path284" />
      <path
         d="m 213.20685,865.73393 q -0.0991,-0.23499 -0.19811,-0.46997"
         id="path285" />
      <path
         d="m 210.73561,851.25428 q -0.12669,-0.31301 -0.25339,-0.62601"
         id="path286" />
      <path
         d="m 190.93081,824.84642 q -0.15968,-0.35751 -0.31939,-0.71501"
         id="path287" />
      <path
         d="m 198.87561,840.94458 q -0.17168,-0.39077 -0.34338,-0.78152"
         id="path288" />
      <path
         d="m 439.47361,1243.7408 q 0.20339,-0.1299 0.40693,-0.2596"
         id="path289" />
      <path
         d="m 458.85278,1256.6551 q 0.17742,-0.034 0.35491,-0.069"
         id="path290" />
      <path
         d="m 412.91653,1214.8631 q 0.0946,-0.2217 0.18904,-0.4435"
         id="path291" />
      <path
         d="m 404.52261,1200.3235 q 0.0485,-0.2498 0.0967,-0.4996"
         id="path292" />
      <path
         d="m 422.05118,1237.9652 q 0.21004,-0.2364 0.42015,-0.4727"
         id="path293" />
      <path
         d="m 386.71235,1196.7228 q -0.0131,-0.345 -0.0271,-0.69"
         id="path294" />
      <path
         d="m 382.1305,1181.9117 q -0.0405,-0.2318 -0.0813,-0.4635"
         id="path295" />
      <path
         d="m 371.41329,1168.0842 q -0.0983,-0.2738 -0.19707,-0.5474"
         id="path296" />
      <path
         d="m 367.29819,1150.7186 q -0.13184,-0.2838 -0.26421,-0.5674"
         id="path297" />
      <path
         d="m 324.90959,1106.3796 q -0.19716,-0.2027 -0.39451,-0.4053"
         id="path298" />
      <path
         d="m 340.32867,1108.5571 q -0.15126,-0.1912 -0.30268,-0.3823"
         id="path299" />
      <path
         d="m 339.24603,1141.101 q -0.26558,-0.321 -0.5319,-0.6413"
         id="path300" />
      <path
         d="m 350.46641,1149.0995 q -0.0998,-0.1493 -0.19974,-0.2985"
         id="path301" />
      <path
         d="m 338.8317,1124.6155 q -0.16744,-0.2008 -0.33512,-0.4013"
         id="path302" />
      <path
         d="m 300.89632,1082.7909 q -0.22855,-0.199 -0.45722,-0.3979"
         id="path303" />
      <path
         d="m 311.8888,1096.3474 q -0.21054,-0.192 -0.42123,-0.3839"
         id="path304" />
      <path
         d="m 292.98977,1061.6966 q -0.16635,-0.1562 -0.33273,-0.3124"
         id="path305" />
      <path
         d="m 276.35785,1053.0367 q -0.23727,-0.2029 -0.47459,-0.4056"
         id="path306" />
      <path
         d="m 267.16317,999.8551 q -0.22486,-0.2964 -0.44959,-0.5929"
         id="path307" />
      <path
         d="m 268.89767,1030.5514 q -0.34009,-0.3347 -0.68019,-0.6694"
         id="path308" />
      <path
         d="m 260.37573,978.96364 q -0.17418,-0.26671 -0.34824,-0.53349"
         id="path309" />
      <path
         d="m 250.1709,968.71293 q -0.22962,-0.35229 -0.45904,-0.70471"
         id="path310" />
      <path
         d="m 242.8262,934.81754 q -0.16402,-0.32562 -0.32788,-0.65132"
         id="path311" />
      <path
         d="m 234.11841,912.8305 q -0.18515,-0.4057 -0.37011,-0.8115"
         id="path312" />
      <path
         d="m 151.69761,515.45264 q 0.12456,-0.43859 0.24879,-0.87727"
         id="path313" />
      <path
         d="m 145.42873,526.94018 q 0.0152,-0.0468 0.0304,-0.0936"
         id="path314" />
      <path
         d="m 183.66431,808.40459 q -0.19896,-0.44269 -0.39794,-0.88537"
         id="path315" />
      <path
         d="m 175.29836,795.39554 q -0.18797,-0.41264 -0.3759,-0.8253"
         id="path316" />
      <path
         d="m 165.93945,715.36525 q -0.0891,-0.27531 -0.17809,-0.55068"
         id="path317" />
      <path
         d="m 198.41458,871.99811 q -0.19788,-0.38593 -0.39572,-0.77188"
         id="path318" />
      <path
         d="m 199.0697,858.10554 q -0.19077,-0.40352 -0.38154,-0.80704"
         id="path319" />
      <path
         d="m 437.74526,1260.0055 q 0.37136,-0.1626 0.74317,-0.3241"
         id="path320" />
      <path
         d="m 401.32437,1226.4109 q 0.15365,-0.4078 0.30661,-0.8159"
         id="path321" />
      <path
         d="m 392.7143,1211.2317 q 0.0455,-0.3422 0.0902,-0.6846"
         id="path322" />
      <path
         d="m 372.26318,1195.9163 q -0.0753,-0.3633 -0.15175,-0.7263"
         id="path323" />
      <path
         d="m 378.71894,1208.7866 q -0.0211,-0.4256 -0.0436,-0.8512"
         id="path324" />
      <path
         d="m 365.64197,1182.2205 q -0.11149,-0.3095 -0.22377,-0.6187"
         id="path325" />
      <path
         d="m 356.06369,1167.3259 q -0.1679,-0.3095 -0.33659,-0.6186"
         id="path326" />
      <path
         d="m 319.59473,1120.9588 q -0.28694,-0.2624 -0.57432,-0.5244"
         id="path327" />
      <path
         d="m 335.15507,1153.9687 q -0.22027,-0.2551 -0.44108,-0.5098"
         id="path328" />
      <path
         d="m 325.94471,1138.7795 q -0.25874,-0.2537 -0.51797,-0.5069"
         id="path329" />
      <path
         d="m 289.76295,1093.0705 q -0.34447,-0.2462 -0.68921,-0.4919"
         id="path330" />
      <path
         d="m 286.43822,1078.254 q -0.34374,-0.2633 -0.68769,-0.5264"
         id="path331" />
      <path
         d="m 299.69874,1105.8838 q -0.27476,-0.2052 -0.54976,-0.4102"
         id="path332" />
      <path
         d="m 272.19124,1067.4448 q -0.28526,-0.2052 -0.57064,-0.4101"
         id="path333" />
      <path
         d="m 261.9237,1057.1122 q -0.36274,-0.2578 -0.72563,-0.5155"
         id="path334" />
      <path
         d="m 254.70056,1006.4169 q -0.26055,-0.2852 -0.52105,-0.5703"
         id="path335" />
      <path
         d="m 252.8811,1020.7727 q -0.25716,-0.2394 -0.51434,-0.4788"
         id="path336" />
      <path
         d="m 262.37616,1041.5791 q -0.3393,-0.2815 -0.67868,-0.5629"
         id="path337" />
      <path
         d="m 246.00588,982.87295 q -0.29812,-0.38053 -0.59606,-0.7612"
         id="path338" />
      <path
         d="m 236.91424,971.01143 q -0.25646,-0.33685 -0.5128,-0.6738"
         id="path339" />
      <path
         d="m 232.38936,947.21527 q -0.25176,-0.39683 -0.50333,-0.79378"
         id="path340" />
      <path
         d="m 220.74109,923.39274 q -0.248,-0.42716 -0.49583,-0.85442"
         id="path341" />
      <path
         d="m 206.79842,886.29594 q -0.21685,-0.42387 -0.43363,-0.84778"
         id="path342" />
      <path
         d="m 151.77772,652.32271 q -0.0338,-0.44334 -0.0668,-0.88673"
         id="path343" />
      <path
         d="m 135.03372,564.11882 q 0.12081,-0.34911 0.24161,-0.69822"
         id="path344" />
      <path
         d="m 173.54352,816.1197 q -0.21134,-0.42533 -0.42266,-0.85066"
         id="path345" />
      <path
         d="m 187.46569,879.543 q -0.20375,-0.33952 -0.40749,-0.67904"
         id="path346" />
      <path
         d="m 358.48401,1192.9266 q -0.17912,-0.4636 -0.3602,-0.9264"
         id="path347" />
      <path
         d="m 351.01392,1180.539 q -0.20887,-0.3824 -0.41909,-0.764"
         id="path348" />
      <path
         d="m 341.7564,1165.9898 q -0.24072,-0.3284 -0.4824,-0.6562"
         id="path349" />
      <path
         d="m 309.60119,1130.5573 q -0.31154,-0.2431 -0.62354,-0.4857"
         id="path350" />
      <path
         d="m 306.27284,1117.1469 q -0.37166,-0.2876 -0.74385,-0.5746"
         id="path351" />
      <path
         d="m 320.63556,1155.4678 q -0.34808,-0.3203 -0.69712,-0.6396"
         id="path352" />
      <path
         d="m 328.43186,1166.9249 q -0.33779,-0.3656 -0.6769,-0.73"
         id="path353" />
      <path
         d="m 278.15132,1099.7982 q -0.42459,-0.2524 -0.84957,-0.5041"
         id="path354" />
      <path
         d="m 274.54033,1084.2088 q -0.40717,-0.2605 -0.81463,-0.5207"
         id="path355" />
      <path
         d="m 289.26804,1115.9655 q -0.41132,-0.2562 -0.82311,-0.5117"
         id="path356" />
      <path
         d="m 244.31399,997.19294 q -0.28007,-0.30473 -0.56007,-0.60951"
         id="path357" />
      <path
         d="m 242.41543,1012.9005 q -0.33442,-0.3052 -0.66886,-0.6103"
         id="path358" />
      <path
         d="m 250.53992,1034.9618 q -0.28646,-0.2261 -0.57298,-0.4521"
         id="path359" />
      <path
         d="m 239.70669,1026.5388 q -0.37409,-0.2895 -0.74827,-0.5789"
         id="path360" />
      <path
         d="m 250.9245,1048.1706 q -0.3735,-0.2591 -0.74714,-0.518"
         id="path361" />
      <path
         d="m 233.69913,986.19116 q -0.32565,-0.35726 -0.65123,-0.71458"
         id="path362" />
      <path
         d="m 219.90365,944.01706 q -0.23216,-0.33127 -0.46423,-0.6626"
         id="path363" />
      <path
         d="m 210.15981,930.30271 q -0.2799,-0.40697 -0.55971,-0.814"
         id="path364" />
      <path
         d="m 210.05305,916.64909 q -0.25027,-0.40629 -0.50043,-0.81265"
         id="path365" />
      <path
         d="m 349.83717,1209.0343 q -0.006,-0.016 -0.0125,-0.032"
         id="path366" />
      <path
         d="m 295.83694,1130.0704 q -0.38025,-0.2457 -0.76102,-0.4906"
         id="path367" />
      <path
         d="m 262.53756,1088.4984 q -0.43511,-0.2338 -0.87053,-0.467"
         id="path368" />
      <path
         d="m 213.17042,964.74008 q -0.32439,-0.3584 -0.64876,-0.71683"
         id="path369" />
      <path
         d="m 128.56522,589.79337 q 0.0634,-0.2013 0.12686,-0.40258"
         id="path370" />
      <path
         d="m 300.7619,1163.7724 q -0.34223,-0.2362 -0.6851,-0.4715"
         id="path371" />
      <path
         d="m 123.88919,606.21181 q 0.0135,-0.0477 0.027,-0.0955"
         id="path372" />
      <path
         d="m 284.87657,1149.6305 q -0.13437,-0.072 -0.26879,-0.1437"
         id="path373" />
      <path
         d="m 254.81203,1118.5589 q -0.0351,-0.014 -0.0703,-0.027"
         id="path374" />
      <path
         d="m 118.35486,642.05939 q 0.0298,-0.20182 0.0597,-0.40361"
         id="path375" />
      <path
         d="m 218.38581,1069.1174 q -0.1259,-0.048 -0.25181,-0.097"
         id="path376" />
      <path
         d="m 121.84753,824.21909 q -0.19741,-0.27065 -0.39472,-0.54136"
         id="path377" />
      <path
         d="m 134.2032,886.75238 q -0.0402,-0.0388 -0.0804,-0.0776"
         id="path378" />
      <path
         d="m 141.08007,912.50182 q -0.002,-0.002 -0.005,-0.004"
         id="path379" />
      <path
         d="m 186.26845,1016.149 q -0.0614,-0.031 -0.12274,-0.061"
         id="path380" />
      <path
         d="m 174.9902,990.89279 q -0.39871,-0.23247 -0.79762,-0.46461"
         id="path381" />
      <path
         d="m 158.17213,958.96521 q -0.0281,-0.0189 -0.0562,-0.0377"
         id="path382" />
      <path
         d="m 151.06436,935.72897 q -0.10734,-0.0825 -0.2147,-0.16509"
         id="path383" />
      <path
         d="m 1453,1503 v -50 h 50"
         fill="currentColor"
         id="path384"
         style="fill:none" />
    </g>
    <g
       id="4-gold"
       stroke-width="6"
       stroke-linecap="round"
       stroke-linejoin="round"
       stroke="#ffd700">
      <path
         d="m 256.0531,336.68738 q -0.0798,-0.53662 -0.15944,-1.07328"
         id="path385" />
      <path
         d="m 186.67079,688.67943 q -0.15072,-0.48158 -0.30086,-0.96334"
         id="path386" />
      <path
         d="m 250.69008,347.60956 q -0.0841,-0.51918 -0.16809,-1.03839"
         id="path387" />
      <path
         d="m 263.95101,327.43108 q -0.0652,-0.50743 -0.13011,-1.0149"
         id="path388" />
      <path
         d="m 200.71249,419.84333 q -0.0382,-0.62325 -0.0769,-1.24647"
         id="path389" />
      <path
         d="m 264.10994,943.51909 q -0.21087,-0.49175 -0.42123,-0.98372"
         id="path390" />
      <path
         d="m 255.65647,917.8256 q -0.17214,-0.47259 -0.3439,-0.94532"
         id="path391" />
      <path
         d="m 174.55769,597.5182 q -0.0101,-0.60401 -0.0192,-1.20803"
         id="path392" />
      <path
         d="m 184.3378,642.46276 q -0.11419,-0.58319 -0.22721,-1.1666"
         id="path393" />
      <path
         d="m 177.96448,676.60717 q -0.13375,-0.51326 -0.26667,-1.02675"
         id="path394" />
      <path
         d="m 167.91285,543.69722 q 0.0895,-0.61437 0.17911,-1.22872"
         id="path395" />
      <path
         d="m 167.62713,560.56518 q 0.0683,-0.57969 0.13705,-1.15933"
         id="path396" />
      <path
         d="m 178.67501,721.51839 q -0.16955,-0.47938 -0.33868,-0.95891"
         id="path397" />
      <path
         d="m 174.15695,688.04022 q -0.15837,-0.57135 -0.31574,-1.14298"
         id="path398" />
      <path
         d="m 255.63208,952.3434 q -0.28515,-0.54839 -0.56972,-1.09707"
         id="path399" />
      <path
         d="m 244.20113,922.94329 q -0.24911,-0.5626 -0.49775,-1.12542"
         id="path400" />
      <path
         d="m 246.08848,909.70962 q -0.18619,-0.48656 -0.37207,-0.97325"
         id="path401" />
      <path
         d="m 172.78674,625.48658 q -0.0554,-0.6175 -0.10941,-1.23512"
         id="path402" />
      <path
         d="m 172.74663,656.14717 q -0.094,-0.51079 -0.18699,-1.02177"
         id="path403" />
      <path
         d="m 173.60007,637.77387 q -0.0732,-0.55551 -0.14528,-1.11118"
         id="path404" />
      <path
         d="m 166.76102,671.57798 q -0.12209,-0.59021 -0.24289,-1.18069"
         id="path405" />
      <path
         d="m 178.4756,497.19057 q 0.0652,-0.5964 0.13005,-1.19284"
         id="path406" />
      <path
         d="m 156.91675,565.53021 q 0.10537,-0.58624 0.21109,-1.17241"
         id="path407" />
      <path
         d="m 192.06743,776.69164 q -0.18784,-0.47049 -0.37572,-0.94097"
         id="path408" />
      <path
         d="m 170.83922,704.88231 q -0.18064,-0.58484 -0.36035,-1.16997"
         id="path409" />
      <path
         d="m 169.03898,729.46772 q -0.19584,-0.547 -0.39107,-1.09421"
         id="path410" />
      <path
         d="m 163.32035,683.55488 q -0.12781,-0.55252 -0.25451,-1.1053"
         id="path411" />
      <path
         d="m 222.56816,381.93025 q -0.0748,-0.49981 -0.14974,-0.9996"
         id="path412" />
      <path
         d="m 265.14674,1018.1164 q -0.34248,-0.3679 -0.68489,-0.7359"
         id="path413" />
      <path
         d="m 244.14218,951.46031 q -0.25618,-0.43874 -0.51205,-0.87767"
         id="path414" />
      <path
         d="m 232.87834,925.20289 q -0.2436,-0.47224 -0.48691,-0.94462"
         id="path415" />
      <path
         d="m 217.81684,880.237 q -0.19936,-0.45874 -0.39863,-0.91751"
         id="path416" />
      <path
         d="m 217.9687,893.51169 q -0.22079,-0.46563 -0.44143,-0.93132"
         id="path417" />
      <path
         d="m 165.13664,646.37516 q -0.0686,-0.57829 -0.13594,-1.15674"
         id="path418" />
      <path
         d="m 161.99464,741.82868 q -0.18998,-0.501 -0.37945,-1.00219"
         id="path419" />
      <path
         d="m 170.21628,751.92724 q -0.22119,-0.55543 -0.44198,-1.11102"
         id="path420" />
      <path
         d="m 167.65058,765.5475 q -0.23175,-0.54814 -0.46317,-1.09641"
         id="path421" />
      <path
         d="m 173.36213,777.75 q -0.20937,-0.48248 -0.41861,-0.96502"
         id="path422" />
      <path
         d="m 159.26827,704.99507 q -0.17644,-0.62282 -0.3516,-1.24599"
         id="path423" />
      <path
         d="m 157.81288,725.74229 q -0.17172,-0.5089 -0.34272,-1.01803"
         id="path424" />
      <path
         d="m 152.30847,688.19033 q -0.13286,-0.63207 -0.26412,-1.26447"
         id="path425" />
      <path
         d="m 177.9725,829.65226 q -0.22974,-0.4529 -0.45948,-0.90579"
         id="path426" />
      <path
         d="m 185.56511,842.29122 q -0.26316,-0.52498 -0.52633,-1.04996"
         id="path427" />
      <path
         d="m 411.15294,1248.1713 q 0.34897,-0.4206 0.69798,-0.8412"
         id="path428" />
      <path
         d="m 228.69719,936.12237 q -0.31422,-0.52753 -0.62812,-1.05526"
         id="path429" />
      <path
         d="m 222.66972,906.35162 q -0.23944,-0.48416 -0.47867,-0.96842"
         id="path430" />
      <path
         d="m 209.86665,902.93149 q -0.28414,-0.51142 -0.56813,-1.02292"
         id="path431" />
      <path
         d="m 150.0004,739.43914 q -0.21729,-0.5918 -0.43362,-1.18396"
         id="path432" />
      <path
         d="m 162.75988,784.03012 q -0.22219,-0.47811 -0.44417,-0.95631"
         id="path433" />
      <path
         d="m 150.5514,714.8674 q -0.15758,-0.53582 -0.31417,-1.07193"
         id="path434" />
      <path
         d="m 185.77046,867.88352 q -0.29765,-0.52265 -0.59529,-1.04531"
         id="path435" />
      <path
         d="m 166.70083,835.05173 q -0.29541,-0.5182 -0.59077,-1.03642"
         id="path436" />
      <path
         d="m 185.0261,854.05421 q -0.26381,-0.49526 -0.52762,-0.99051"
         id="path437" />
      <path
         d="m 388.1013,1225.2727 q 0.10182,-0.5332 0.20191,-1.0668"
         id="path438" />
      <path
         d="m 403.28489,1238.9374 q 0.24607,-0.45 0.49158,-0.9003"
         id="path439" />
      <path
         d="m 365.82671,1208.4612 q -0.11033,-0.5487 -0.2233,-1.0969"
         id="path440" />
      <path
         d="m 375.30314,1221.7301 q 0.003,-0.5002 0.004,-1.0004"
         id="path441" />
      <path
         d="m 259.18879,1073.5889 q -0.44268,-0.2616 -0.88564,-0.5227"
         id="path442" />
      <path
         d="m 249.57528,1061.6771 q -0.49214,-0.2939 -0.98458,-0.5874"
         id="path443" />
      <path
         d="m 224.88271,965.06713 q -0.37389,-0.46191 -0.74761,-0.92394"
         id="path444" />
      <path
         d="m 194.45779,889.77981 q -0.27414,-0.45944 -0.54825,-0.9189"
         id="path445" />
      <path
         d="m 175.13224,863.11614 q -0.28165,-0.45882 -0.5633,-0.91763"
         id="path446" />
      <path
         d="m 176.3685,874.77575 q -0.34507,-0.53102 -0.69016,-1.06202"
         id="path447" />
      <path
         d="m 162.16014,845.83304 q -0.34342,-0.54873 -0.68679,-1.09747"
         id="path448" />
      <path
         d="m 345.87858,1193.0986 q -0.27852,-0.5137 -0.5597,-1.026"
         id="path449" />
      <path
         d="m 337.74072,1180.5157 q -0.30128,-0.4166 -0.6043,-0.8318"
         id="path450" />
      <path
         d="m 307.83246,1154.3045 q -0.4647,-0.351 -0.93065,-0.7003"
         id="path451" />
      <path
         d="m 312.93308,1165.7608 q -0.46685,-0.3913 -0.93534,-0.7805"
         id="path452" />
      <path
         d="m 274.39476,1111.8647 q -0.53133,-0.2787 -1.06326,-0.5561"
         id="path453" />
      <path
         d="m 265.54818,1100.7319 q -0.53171,-0.2685 -1.06391,-0.5359"
         id="path454" />
      <path
         d="m 248.25958,1079.5219 q -0.55613,-0.2741 -1.11267,-0.5473"
         id="path455" />
      <path
         d="m 239.60146,1055.1965 q -0.5594,-0.3211 -1.11917,-0.6415"
         id="path456" />
      <path
         d="m 231.62016,1001.8928 q -0.37134,-0.3416 -0.74271,-0.6833"
         id="path457" />
      <path
         d="m 230.6171,1018.5431 q -0.4914,-0.378 -0.98296,-0.7558"
         id="path458" />
      <path
         d="m 221.52661,989.97224 q -0.40622,-0.38211 -0.81247,-0.76419"
         id="path459" />
      <path
         d="m 221.15802,976.1762 q -0.37353,-0.40038 -0.74702,-0.8008"
         id="path460" />
      <path
         d="m 206.36042,942.28791 q -0.36969,-0.46702 -0.73929,-0.9341"
         id="path461" />
      <path
         d="m 197.83224,933.08516 q -0.37899,-0.47507 -0.75795,-0.95017"
         id="path462" />
      <path
         d="m 194.22517,919.0244 q -0.354,-0.47901 -0.70798,-0.95805"
         id="path463" />
      <path
         d="m 151.18193,848.50287 q -0.3528,-0.50746 -0.70556,-1.01494"
         id="path464" />
      <path
         d="m 219.42098,1004.7537 q -0.44772,-0.3559 -0.89556,-0.7116"
         id="path465" />
      <path
         d="m 200.43234,964.2839 q -0.4348,-0.42582 -0.86968,-0.85156"
         id="path466" />
      <path
         d="m 195.53202,946.73373 q -0.37852,-0.41314 -0.75707,-0.82624"
         id="path467" />
      <path
         d="m 183.86132,924.4659 q -0.41113,-0.48052 -0.82232,-0.96098"
         id="path468" />
      <path
         d="m 140.34137,818.06819 q -0.32985,-0.52614 -0.65942,-1.05247"
         id="path469" />
      <path
         d="m 113.49186,729.45819 q -0.14638,-0.52316 -0.29135,-1.04671"
         id="path470" />
      <path
         d="m 124.93654,839.14069 q -0.37627,-0.47309 -0.75235,-0.94633"
         id="path471" />
    </g>
    <g
       id="3-bronze"
       stroke-width="6"
       stroke-linecap="round"
       stroke-linejoin="round"
       stroke="#cd9f72">
      <path
         d="m 205.71965,756.22331 q -0.23252,-0.61839 -0.46521,-1.23671"
         id="path472" />
      <path
         d="m 172.3237,488.40602 q 0.10331,-0.72172 0.20592,-1.44354"
         id="path473" />
      <path
         d="m 173.19194,518.84648 q 0.0896,-0.65626 0.17917,-1.31253"
         id="path474" />
      <path
         d="m 169.28621,506.21809 q 0.13291,-0.80101 0.2652,-1.60212"
         id="path475" />
      <path
         d="m 166.35427,532.25995 q 0.11936,-0.69972 0.23867,-1.39944"
         id="path476" />
      <path
         d="m 179.84734,698.51202 q -0.2055,-0.65212 -0.40995,-1.30456"
         id="path477" />
      <path
         d="m 178.20566,461.96322 q 0.0733,-0.83865 0.14548,-1.67741"
         id="path478" />
      <path
         d="m 171.49207,472.05693 q 0.11856,-0.87994 0.23572,-1.76006"
         id="path479" />
      <path
         d="m 252.46532,939.75805 q -0.30507,-0.64439 -0.6094,-1.28914"
         id="path480" />
      <path
         d="m 167.03875,582.83062 q 0.0452,-0.65233 0.0914,-1.3046"
         id="path481" />
      <path
         d="m 166.45931,605.87386 q 0.005,-0.73776 0.0113,-1.4755"
         id="path482" />
      <path
         d="m 163.44687,594.06123 q 0.0499,-0.82425 0.10152,-1.64839"
         id="path483" />
      <path
         d="m 164.98117,496.22277 q 0.15862,-0.82678 0.31617,-1.65376"
         id="path484" />
      <path
         d="m 162.0052,518.84879 q 0.14621,-0.69461 0.29199,-1.3893"
         id="path485" />
      <path
         d="m 155.93455,529.22523 q 0.17307,-0.70401 0.34572,-1.40813"
         id="path486" />
      <path
         d="m 156.4214,544.18893 q 0.16784,-0.74824 0.33563,-1.49649"
         id="path487" />
      <path
         d="m 164.75468,695.05075 q -0.17769,-0.66023 -0.35394,-1.32086"
         id="path488" />
      <path
         d="m 181.19767,452.37428 q 0.053,-0.87534 0.10464,-1.75076"
         id="path489" />
      <path
         d="m 155.79499,583.17576 q 0.0978,-0.69009 0.19646,-1.38006"
         id="path490" />
      <path
         d="m 162.28195,620.78515 q -0.0174,-0.99402 -0.0314,-1.98809"
         id="path491" />
      <path
         d="m 162.255,630.12733 q -0.0335,-0.68292 -0.0652,-1.36591"
         id="path492" />
      <path
         d="m 155.99646,603.79254 q 0.0785,-1.02517 0.15991,-2.05012"
         id="path493" />
      <path
         d="m 153.34261,594.85206 q 0.0848,-0.6918 0.17071,-1.38347"
         id="path494" />
      <path
         d="m 160.49928,657.9929 q -0.10579,-0.77291 -0.2092,-1.54614"
         id="path495" />
      <path
         d="m 155.12579,671.0451 q -0.13503,-0.8435 -0.26715,-1.68746"
         id="path496" />
      <path
         d="m 148.39892,536.89387 q 0.25377,-0.86576 0.50684,-1.73174"
         id="path497" />
      <path
         d="m 146.31219,546.96723 q 0.28392,-0.9646 0.56735,-1.92935"
         id="path498" />
      <path
         d="m 153.79926,554.33978 q 0.15359,-0.68083 0.30732,-1.36162"
         id="path499" />
      <path
         d="m 149.62722,574.68893 q 0.18272,-0.87867 0.36634,-1.75715"
         id="path500" />
      <path
         d="m 145.24251,564.67488 q 0.20813,-0.78309 0.41651,-1.56611"
         id="path501" />
      <path
         d="m 145.49335,586.8594 q 0.17474,-0.86887 0.35077,-1.73749"
         id="path502" />
      <path
         d="m 153.90488,624.7795 q 0.0154,-0.97226 0.0341,-1.94446"
         id="path503" />
      <path
         d="m 155.36739,614.59493 q 0.0389,-0.89044 0.0803,-1.78077"
         id="path504" />
      <path
         d="m 154.3664,637.84074 q -0.0285,-0.81911 -0.0544,-1.63831"
         id="path505" />
      <path
         d="m 145.92157,667.19556 q -0.0793,-0.73767 -0.15616,-1.4756"
         id="path506" />
      <path
         d="m 147.85409,677.87584 q -0.11093,-0.70736 -0.21971,-1.41505"
         id="path507" />
      <path
         d="m 139.88026,574.54229 q 0.2258,-0.80761 0.45207,-1.61508"
         id="path508" />
      <path
         d="m 152.82575,749.92208 q -0.26628,-0.67095 -0.53152,-1.34231"
         id="path509" />
      <path
         d="m 156.78224,769.90621 q -0.31226,-0.70393 -0.62377,-1.40819"
         id="path510" />
      <path
         d="m 163.04583,799.94597 q -0.29915,-0.60126 -0.59807,-1.20264"
         id="path511" />
      <path
         d="m 149.29792,699.68083 q -0.15997,-0.66417 -0.31822,-1.32875"
         id="path512" />
      <path
         d="m 141.68908,692.07924 q -0.13766,-0.72581 -0.27301,-1.45206"
         id="path513" />
      <path
         d="m 174.00327,844.52336 q -0.34184,-0.60848 -0.68369,-1.21697"
         id="path514" />
      <path
         d="m 200.01238,909.41128 q -0.35737,-0.55218 -0.71463,-1.10442"
         id="path515" />
      <path
         d="m 138.247,593.46611 q 0.21044,-0.91504 0.42239,-1.82973"
         id="path516" />
      <path
         d="m 136.12587,583.95965 q 0.25126,-0.90276 0.50345,-1.80526"
         id="path517" />
      <path
         d="m 139.06012,608.7377 q 0.14943,-0.89322 0.30102,-1.78608"
         id="path518" />
      <path
         d="m 137.14942,673.21904 q -0.0739,-0.77764 -0.14493,-1.55554"
         id="path519" />
      <path
         d="m 139.8658,744.71816 q -0.29979,-0.79451 -0.59757,-1.58979"
         id="path520" />
      <path
         d="m 141.26325,732.07434 q -0.24398,-0.72715 -0.48612,-1.45492"
         id="path521" />
      <path
         d="m 145.08999,757.41846 q -0.29619,-0.70732 -0.59114,-1.41516"
         id="path522" />
      <path
         d="m 158.16282,759.27908 q -0.27969,-0.66886 -0.5586,-1.33803"
         id="path523" />
      <path
         d="m 146.94984,773.48666 q -0.38599,-0.83084 -0.77065,-1.6623"
         id="path524" />
      <path
         d="m 153.93848,779.97641 q -0.4142,-0.87786 -0.8273,-1.75623"
         id="path525" />
      <path
         d="m 154.33738,793.00865 q -0.32016,-0.63525 -0.63989,-1.27072"
         id="path526" />
      <path
         d="m 160.71845,816.63673 q -0.32772,-0.60114 -0.65527,-1.20236"
         id="path527" />
      <path
         d="m 154.76034,807.36213 q -0.35814,-0.66204 -0.71594,-1.32427"
         id="path528" />
      <path
         d="m 139.37793,710.42678 q -0.17175,-0.67662 -0.34159,-1.35372"
         id="path529" />
      <path
         d="m 140.22369,721.02401 q -0.21299,-0.72211 -0.42397,-1.4448"
         id="path530" />
      <path
         d="m 132.59605,686.51289 q -0.11832,-0.87833 -0.23292,-1.75716"
         id="path531" />
      <path
         d="m 183.22833,892.63758 q -0.36538,-0.53611 -0.73076,-1.07221"
         id="path532" />
      <path
         d="m 155.03066,835.8652 q -0.4794,-0.76407 -0.95862,-1.52827"
         id="path533" />
      <path
         d="m 303.08623,1142.6919 q -0.58161,-0.4079 -1.16478,-0.8136"
         id="path534" />
      <path
         d="m 319.39874,1175.7076 q -0.53392,-0.5172 -1.07077,-1.0313"
         id="path535" />
      <path
         d="m 282.92442,1127.0067 q -0.62351,-0.3404 -1.24805,-0.679"
         id="path536" />
      <path
         d="m 239.9332,1068.6418 q -0.61157,-0.3057 -1.2236,-0.6105"
         id="path537" />
      <path
         d="m 231.15957,1036.1419 q -0.56402,-0.3628 -1.12835,-0.7252"
         id="path538" />
      <path
         d="m 189.53497,905.39533 q -0.38579,-0.55152 -0.77155,-1.10305"
         id="path539" />
      <path
         d="m 131.04572,599.72428 q 0.23869,-0.92499 0.47906,-1.84955"
         id="path540" />
      <path
         d="m 138.54896,624.05673 q 0.10651,-0.97851 0.21631,-1.95665"
         id="path541" />
      <path
         d="m 136.75299,644.57353 q 0.03,-0.94874 0.0637,-1.89736"
         id="path542" />
      <path
         d="m 130.43265,613.18503 q 0.19399,-0.93832 0.39041,-1.87613"
         id="path543" />
      <path
         d="m 127.1036,670.54142 q -0.0346,-0.8856 -0.0654,-1.77134"
         id="path544" />
      <path
         d="m 131.99898,738.53747 q -0.28646,-0.82242 -0.57034,-1.64573"
         id="path545" />
      <path
         d="m 131.64577,727.90312 q -0.25932,-0.84767 -0.51565,-1.69624"
         id="path546" />
      <path
         d="m 134.88082,759.80343 q -0.31878,-0.74311 -0.63591,-1.48692"
         id="path547" />
      <path
         d="m 143.16961,782.36902 q -0.40839,-0.82211 -0.81552,-1.64483"
         id="path548" />
      <path
         d="m 137.48357,771.5956 q -0.35523,-0.75754 -0.70904,-1.51574"
         id="path549" />
      <path
         d="m 145.67034,799.52301 q -0.39699,-0.72843 -0.79329,-1.45723"
         id="path550" />
      <path
         d="m 150.05215,819.43158 q -0.45265,-0.76195 -0.9049,-1.52416"
         id="path551" />
      <path
         d="m 128.48801,709.45846 q -0.20951,-0.94409 -0.41479,-1.88911"
         id="path552" />
      <path
         d="m 125.21075,680.06189 q -0.0721,-0.94595 -0.13963,-1.89223"
         id="path553" />
      <path
         d="m 164.01015,868.14517 q -0.40721,-0.58141 -0.81446,-1.16279"
         id="path554" />
      <path
         d="m 169.03001,883.50628 q -0.4738,-0.6433 -0.94768,-1.28654"
         id="path555" />
      <path
         d="m 172.41505,895.87428 q -0.44596,-0.57554 -0.89201,-1.15102"
         id="path556" />
      <path
         d="m 158.35448,856.47099 q -0.44212,-0.64398 -0.88423,-1.28796"
         id="path557" />
      <path
         d="m 145.37247,837.00084 q -0.41322,-0.60857 -0.82628,-1.21724"
         id="path558" />
      <path
         d="m 295.73073,1150.6663 q -0.59455,-0.3739 -1.1906,-0.7454"
         id="path559" />
      <path
         d="m 292.49984,1140.3205 q -0.62452,-0.377 -1.25044,-0.7517"
         id="path560" />
      <path
         d="m 265.67786,1119.6238 q -0.63977,-0.2848 -1.2803,-0.5677"
         id="path561" />
      <path
         d="m 253.87928,1099.8065 q -0.643,-0.2815 -1.28662,-0.5616"
         id="path562" />
      <path
         d="m 277.47414,1136.387 q -0.59051,-0.2893 -1.18191,-0.5769"
         id="path563" />
      <path
         d="m 239.8846,1087.4158 q -0.65291,-0.2681 -1.30635,-0.5349"
         id="path564" />
      <path
         d="m 228.42171,1056.9463 q -0.84189,-0.4195 -1.68457,-0.8374"
         id="path565" />
      <path
         d="m 228.93807,1067.7287 q -0.69991,-0.3108 -1.40037,-0.6204"
         id="path566" />
      <path
         d="m 234.21293,1078.0761 q -0.71435,-0.3015 -1.4293,-0.6016"
         id="path567" />
      <path
         d="m 222.69148,1026.8881 q -0.64162,-0.4181 -1.28363,-0.8356"
         id="path568" />
      <path
         d="m 219.41046,1015.9229 q -0.63664,-0.4508 -1.27363,-0.9012"
         id="path569" />
      <path
         d="m 221.50424,1041.6711 q -0.75072,-0.4113 -1.50205,-0.8214"
         id="path570" />
      <path
         d="m 231.04186,1047.2677 q -0.64089,-0.3655 -1.28223,-0.7301"
         id="path571" />
      <path
         d="m 209.741,992.38877 q -0.54952,-0.45023 -1.09924,-0.90022"
         id="path572" />
      <path
         d="m 207.86819,976.33115 q -0.50085,-0.47121 -1.00179,-0.94234"
         id="path573" />
      <path
         d="m 187.41866,938.21096 q -0.57957,-0.62756 -1.1593,-1.25497"
         id="path574" />
      <path
         d="m 180.15338,911.34485 q -0.44624,-0.55598 -0.89256,-1.11189"
         id="path575" />
      <path
         d="m 137.96958,633.36458 q 0.0731,-0.9985 0.14991,-1.99671"
         id="path576" />
      <path
         d="m 127.59288,642.08994 q 0.0935,-0.99922 0.19106,-1.99805"
         id="path577" />
      <path
         d="m 124.7018,620.69658 q 0.16125,-0.76143 0.32428,-1.52249"
         id="path578" />
      <path
         d="m 127.7325,718.91275 q -0.24003,-0.91976 -0.47617,-1.84052"
         id="path579" />
      <path
         d="m 133.72681,780.40856 q -0.44152,-0.87462 -0.8812,-1.75016"
         id="path580" />
      <path
         d="m 138.0637,790.55068 q -0.47282,-0.88605 -0.94418,-1.77288"
         id="path581" />
      <path
         d="m 137.46692,805.43799 q -0.50027,-0.84927 -0.99948,-1.69916"
         id="path582" />
      <path
         d="m 116.18323,682.99915 q -0.0503,-0.94298 -0.0957,-1.88621"
         id="path583" />
      <path
         d="m 115.68325,694.10472 q -0.0901,-0.83157 -0.17637,-1.66354"
         id="path584" />
      <path
         d="m 159.16396,877.85571 q -0.54542,-0.70084 -1.09098,-1.40156"
         id="path585" />
      <path
         d="m 153.15926,867.94966 q -0.58236,-0.75579 -1.16483,-1.51149"
         id="path586" />
      <path
         d="m 160.16519,888.73149 q -0.52665,-0.63519 -1.05347,-1.27022"
         id="path587" />
      <path
         d="m 167.69754,905.51258 q -0.56437,-0.64967 -1.12897,-1.29913"
         id="path588" />
      <path
         d="m 146.35096,858.96558 q -0.5029,-0.652 -1.0058,-1.304"
         id="path589" />
      <path
         d="m 243.00514,1100.6447 q -0.61068,-0.2292 -1.22184,-0.4573"
         id="path590" />
      <path
         d="m 219.36213,1059.9113 q -0.9167,-0.3976 -1.8343,-0.7932"
         id="path591" />
      <path
         d="m 207.57154,1005.9118 q -0.77963,-0.5448 -1.5598,-1.0888"
         id="path592" />
      <path
         d="m 209.06081,1016.9724 q -0.79058,-0.4988 -1.58177,-0.9966"
         id="path593" />
      <path
         d="m 214.09229,1048.3352 q -0.90056,-0.4212 -1.80198,-0.8405"
         id="path594" />
      <path
         d="m 201.38456,985.47032 q -0.67771,-0.54772 -1.35577,-1.09501"
         id="path595" />
      <path
         d="m 197.12139,975.4011 q -0.56411,-0.48189 -1.12846,-0.96351"
         id="path596" />
      <path
         d="m 189.8903,969.12331 q -0.75082,-0.6335 -1.50213,-1.26642"
         id="path597" />
      <path
         d="m 191.75092,956.59057 q -0.5612,-0.54099 -1.12259,-1.08179"
         id="path598" />
      <path
         d="m 183.78035,949.19917 q -0.65962,-0.62721 -1.31958,-1.25407"
         id="path599" />
      <path
         d="m 174.26847,920.43864 q -0.6618,-0.726 -1.32392,-1.4517"
         id="path600" />
      <path
         d="m 123.30171,650.27088 q 0.0737,-0.94466 0.15139,-1.88899"
         id="path601" />
      <path
         d="m 131.65783,825.60919 q -0.49435,-0.71216 -0.98816,-1.4247"
         id="path602" />
      <path
         d="m 149.42211,876.82032 q -0.5487,-0.65017 -1.09757,-1.30021"
         id="path603" />
      <path
         d="m 143.6921,868.00152 q -0.64311,-0.76887 -1.28635,-1.53764"
         id="path604" />
      <path
         d="m 156.16945,898.04972 q -0.49058,-0.53378 -0.98137,-1.06736"
         id="path605" />
      <path
         d="m 150.10218,887.49408 q -0.59375,-0.65799 -1.18776,-1.31573"
         id="path606" />
      <path
         d="m 166.11863,915.32889 q -0.62931,-0.66289 -1.25897,-1.32545"
         id="path607" />
      <path
         d="m 210.04819,1037.6059 q -0.89314,-0.4524 -1.78713,-0.9031"
         id="path608" />
      <path
         d="m 169.65905,936.30908 q -0.73969,-0.68221 -1.47995,-1.3638"
         id="path609" />
      <path
         d="m 166.21266,925.15458 q -0.65599,-0.64049 -1.31242,-1.28054"
         id="path610" />
      <path
         d="m 116.09422,775.8971 q -0.44041,-0.8714 -0.87815,-1.74414"
         id="path611" />
      <path
         d="m 149.02516,906.0842 q -0.58641,-0.56183 -1.17319,-1.12328"
         id="path612" />
      <path
         d="m 144.36589,895.44727 q -0.58489,-0.58072 -1.17012,-1.1611"
         id="path613" />
      <path
         d="m 129.72452,859.68976 q -0.51097,-0.57654 -1.02193,-1.15309"
         id="path614" />
      <path
         d="m 194.86872,1024.8715 q -0.87272,-0.4331 -1.74625,-0.8646"
         id="path615" />
      <path
         d="m 199.07994,1033.4234 q -0.76474,-0.3598 -1.53009,-0.7183"
         id="path616" />
      <path
         d="m 181.65012,997.17985 q -0.88135,-0.51629 -1.76357,-1.03106"
         id="path617" />
      <path
         d="m 184.32642,987.38365 q -0.82113,-0.54802 -1.643,-1.09492"
         id="path618" />
      <path
         d="m 167.26779,957.1092 q -0.79477,-0.59637 -1.5903,-1.19171"
         id="path619" />
      <path
         d="m 160.91617,939.25567 q -0.59424,-0.4898 -1.18891,-0.97908"
         id="path620" />
      <path
         d="m 117.40575,785.16728 q -0.39475,-0.72002 -0.78789,-1.44092"
         id="path621" />
      <path
         d="m 170.16555,981.64546 q -0.70495,-0.4297 -1.4105,-0.85842"
         id="path622" />
    </g>
    <g
       id="2-silver"
       stroke-width="6"
       stroke-linecap="round"
       stroke-linejoin="round"
       stroke="#c0c0c0">
      <path
         d="m 159.1053,507.04193 q 0.29789,-1.27939 0.59322,-2.55937"
         id="path623" />
      <path
         d="m 146.87714,604.21552 q 0.13857,-1.04181 0.27999,-2.08323"
         id="path624" />
      <path
         d="m 141.58794,554.89582 q 0.33816,-1.07078 0.6759,-2.1417"
         id="path625" />
      <path
         d="m 145.9152,619.86325 q 0.0962,-1.18803 0.19702,-2.37568"
         id="path626" />
      <path
         d="m 145.59317,629.12919 q 0.0569,-1.21858 0.11926,-2.4369"
         id="path627" />
      <path
         d="m 145.05859,641.93927 q -0.002,-1.12899 10e-4,-2.25798"
         id="path628" />
      <path
         d="m 138.92394,655.19157 q -0.0269,-1.05264 -0.0489,-2.10539"
         id="path629" />
      <path
         d="m 131.81949,696.11144 q -0.18026,-1.03668 -0.35537,-2.07423"
         id="path630" />
      <path
         d="m 130.35117,658.00405 q 0.005,-1.05221 0.0141,-2.1044"
         id="path631" />
      <path
         d="m 130.16977,629.0628 q 0.15313,-1.1059 0.31065,-2.21119"
         id="path632" />
      <path
         d="m 130.42286,748.02252 q -0.38987,-1.01545 -0.776,-2.03233"
         id="path633" />
      <path
         d="m 123.23835,689.44402 q -0.12247,-1.081 -0.2389,-2.16268"
         id="path634" />
      <path
         d="m 124.28094,701.07436 q -0.18204,-1.05967 -0.3584,-2.12031"
         id="path635" />
      <path
         d="m 121.45414,659.52168 q 0.0469,-1.12173 0.0998,-2.24319"
         id="path636" />
      <path
         d="m 117.3024,670.23393 q 0.008,-1.10632 0.0232,-2.21257"
         id="path637" />
      <path
         d="m 122.14322,632.57797 q 0.17582,-1.02374 0.35551,-2.04681"
         id="path638" />
      <path
         d="m 122.20364,737.19303 q -0.37186,-1.12437 -0.7381,-2.25059"
         id="path639" />
      <path
         d="m 123.81898,753.95587 q -0.47373,-1.16958 -0.94221,-2.34127"
         id="path640" />
      <path
         d="m 128.13008,767.4947 q -0.44024,-0.9557 -0.87762,-1.91272"
         id="path641" />
      <path
         d="m 119.94686,713.3982 q -0.25923,-1.19486 -0.51116,-2.39129"
         id="path642" />
      <path
         d="m 116.05778,704.55458 q -0.18599,-1.14497 -0.3649,-2.29106"
         id="path643" />
      <path
         d="m 140.09858,845.34595 q -0.61446,-0.82637 -1.22867,-1.65292"
         id="path644" />
      <path
         d="m 134.77337,835.67316 q -0.66941,-0.92156 -1.33822,-1.84356"
         id="path645" />
      <path
         d="m 212.39296,1028.8847 q -0.91175,-0.5227 -1.82436,-1.044"
         id="path646" />
      <path
         d="m 199.22268,995.04582 q -0.85343,-0.61337 -1.70755,-1.22578"
         id="path647" />
      <path
         d="m 177.80035,935.56056 q -0.90096,-0.90653 -1.80257,-1.81241"
         id="path648" />
      <path
         d="m 122.62681,727.23062 q -0.30115,-1.04947 -0.59715,-2.1004"
         id="path649" />
      <path
         d="m 122.53967,745.69063 q -0.45229,-1.22729 -0.8983,-2.45688"
         id="path650" />
      <path
         d="m 115.12474,741.90592 q -0.44732,-1.30339 -0.88661,-2.6095"
         id="path651" />
      <path
         d="m 116.34788,757.40834 q -0.51533,-1.2333 -1.02432,-2.46923"
         id="path652" />
      <path
         d="m 124.06019,775.55053 q -0.59652,-1.2004 -1.18859,-2.40301"
         id="path653" />
      <path
         d="m 119.10563,767.35405 q -0.60327,-1.30044 -1.20034,-2.60374"
         id="path654" />
      <path
         d="m 126.01289,785.68669 q -0.54768,-1.01897 -1.09262,-2.03941"
         id="path655" />
      <path
         d="m 130.7908,796.24157 q -0.61809,-1.08166 -1.23379,-2.16467"
         id="path656" />
      <path
         d="m 128.15541,805.05158 q -0.73794,-1.1993 -1.47316,-2.40026"
         id="path657" />
      <path
         d="m 129.11553,815.56797 q -0.66749,-1.01343 -1.33345,-2.02788"
         id="path658" />
      <path
         d="m 115.84353,720.68877 q -0.27743,-1.1477 -0.54802,-2.29704"
         id="path659" />
      <path
         d="m 158.03205,907.84309 q -0.79758,-0.82204 -1.59577,-1.64347"
         id="path660" />
      <path
         d="m 136.98056,855.06852 q -0.72944,-0.89918 -1.45877,-1.79844"
         id="path661" />
      <path
         d="m 137.28231,863.52092 q -0.99998,-1.16772 -2.00011,-2.33532"
         id="path662" />
      <path
         d="m 131.2375,843.17939 q -0.9295,-1.18774 -1.85821,-2.37609"
         id="path663" />
      <path
         d="m 126.75178,832.37161 q -1.10599,-1.47522 -2.20975,-2.95212"
         id="path664" />
      <path
         d="m 198.09193,1005.7056 q -0.91681,-0.5829 -1.83448,-1.1645"
         id="path665" />
      <path
         d="m 203.93487,1025.7198 q -0.90833,-0.4931 -1.81753,-0.9845"
         id="path666" />
      <path
         d="m 199.5422,1016.0739 q -0.91206,-0.5262 -1.825,-1.0509"
         id="path667" />
      <path
         d="m 190.70571,998.04867 q -0.87272,-0.55736 -1.74626,-1.11344"
         id="path668" />
      <path
         d="M 193.05526,988.44893 Q 192.15642,987.8 191.25678,987.15216"
         id="path669" />
      <path
         d="m 187.00821,978.71118 q -0.8878,-0.66397 -1.7764,-1.32686"
         id="path670" />
      <path
         d="m 180.59589,969.98946 q -1.0201,-0.77755 -2.04132,-1.55364"
         id="path671" />
      <path
         d="m 183.61327,962.21425 q -0.86743,-0.73292 -1.73557,-1.465"
         id="path672" />
      <path
         d="m 175.51371,944.15692 q -0.84607,-0.77399 -1.69283,-1.54722"
         id="path673" />
      <path
         d="m 174.98266,953.24421 q -0.88112,-0.74046 -1.76306,-1.47994"
         id="path674" />
      <path
         d="m 120.47692,792.27644 q -0.82277,-1.42689 -1.64004,-2.85695"
         id="path675" />
      <path
         d="m 123.03818,799.16428 q -0.70518,-1.16984 -1.40719,-2.34158"
         id="path676" />
      <path
         d="m 121.31899,808.73823 q -0.67195,-1.02916 -1.34173,-2.05972"
         id="path677" />
      <path
         d="m 140.84029,881.94559 q -0.87314,-0.92548 -1.74681,-1.85044"
         id="path678" />
      <path
         d="m 135.73858,872.7115 q -0.77735,-0.84119 -1.55498,-1.68211"
         id="path679" />
      <path
         d="m 156.24146,916.30583 q -0.85471,-0.81153 -1.71023,-1.6222"
         id="path680" />
      <path
         d="m 129.39703,851.00698 q -0.97102,-1.16069 -1.94158,-2.32177"
         id="path681" />
      <path
         d="m 189.41408,1007.6038 q -0.89847,-0.5108 -1.79782,-1.0201"
         id="path682" />
      <path
         d="m 178.31992,980.06802 q -1.0277,-0.69372 -2.05662,-1.38565"
         id="path683" />
      <path
         d="m 173.92796,965.28507 q -1.07895,-0.80331 -2.15924,-1.60482"
         id="path684" />
      <path
         d="m 167.00587,945.69109 q -0.937,-0.77674 -1.87503,-1.55224"
         id="path685" />
      <path
         d="m 156.59874,925.98663 q -0.78157,-0.68936 -1.56386,-1.37791"
         id="path686" />
      <path
         d="m 166.26478,967.43381 q -0.97386,-0.65616 -1.94891,-1.31056"
         id="path687" />
      <path
         d="m 172.37741,973.0913 q -1.10152,-0.74882 -2.20449,-1.49551"
         id="path688" />
    </g>
  </g>
</svg>
