<?xml version="1.0" encoding="UTF-8" standalone="no"?>
<svg
   class="svg"
   viewBox="0 0 793.70079 1122.5197"
   version="1.1"
   id="svg591"
   sodipodi:docname="5.svg"
   width="210mm"
   height="297mm"
   inkscape:version="1.3 (0e150ed, 2023-07-21)"
   xmlns:inkscape="http://www.inkscape.org/namespaces/inkscape"
   xmlns:sodipodi="http://sodipodi.sourceforge.net/DTD/sodipodi-0.dtd"
   xmlns="http://www.w3.org/2000/svg"
   xmlns:svg="http://www.w3.org/2000/svg">
  <defs
     id="defs591" />
  <sodipodi:namedview
     id="namedview591"
     pagecolor="#ffffff"
     bordercolor="#000000"
     borderopacity="0.25"
     inkscape:showpageshadow="2"
     inkscape:pageopacity="0.0"
     inkscape:pagecheckerboard="0"
     inkscape:deskcolor="#d1d1d1"
     inkscape:zoom="5.1395408"
     inkscape:cx="524.36592"
     inkscape:cy="529.23016"
     inkscape:window-width="1728"
     inkscape:window-height="1051"
     inkscape:window-x="0"
     inkscape:window-y="38"
     inkscape:window-maximized="0"
     inkscape:current-layer="5-gray"
     inkscape:document-units="mm" />
  <!-- http://localhost:1234/#/true/1450/5/1000/deep/joined/0.73,0.15,0.87,0.62 -->
  <rect
     x="0"
     y="0"
     width="548.03156"
     height="548.03156"
     fill="currentColor"
     id="rect1"
     style="stroke-width:0.377962" />
  <g
     id="5-gray"
     stroke-width="6"
     stroke-linecap="round"
     stroke-linejoin="round"
     stroke="#909090"
     transform="scale(0.37795276)">
    <path
       d="m 1160.1934,707.22431 q 0.01,-0.008 0.016,-0.016"
       id="path1" />
    <path
       d="m 1163.5942,759.39151 q 0.045,0.005 0.09,0.0108"
       id="path2" />
    <path
       d="m 1147.7292,799.82824 q 0.01,0.009 0.015,0.0174"
       id="path3" />
    <path
       d="m 1117.3699,829.51783 q 10e-4,0.005 0,0.01"
       id="path4" />
    <path
       d="m 1101.3581,922.8046 q 0,0.009 -0.01,0.0171"
       id="path5" />
    <path
       d="m 1174.071,460.80108 q -0.01,-0.005 -0.017,-0.009"
       id="path6" />
    <path
       d="m 1159.4908,424.37334 q -0.01,-0.005 -0.012,-0.0102"
       id="path7" />
    <path
       d="m 1159.9618,374.94158 q -0.01,-0.0146 -0.015,-0.0291"
       id="path8" />
    <path
       d="m 1183.3535,527.5522 q 0,-0.002 -0.01,-0.003"
       id="path9" />
    <path
       d="m 1192.8248,583.43941 q -0.039,-0.0233 -0.078,-0.0465"
       id="path10" />
    <path
       d="m 1169.4845,599.58277 q -0.01,-0.006 -0.013,-0.0129"
       id="path11" />
    <path
       d="m 1200.0279,558.46137 q -0.029,-0.0118 -0.058,-0.0236"
       id="path12" />
    <path
       d="m 1198.9231,495.3584 q -0.054,-0.0201 -0.1073,-0.0403"
       id="path13" />
    <path
       d="m 1208.1772,649.23191 q -0.012,-0.0296 -0.025,-0.0591"
       id="path14" />
    <path
       d="m 1189.0663,623.50456 q -0.019,-0.0255 -0.038,-0.051"
       id="path15" />
    <path
       d="m 1191.8108,702.39866 q 0.016,-0.0291 0.033,-0.0581"
       id="path16" />
    <path
       d="m 1175.6388,735.42389 q 0.1146,-0.0451 0.2291,-0.0903"
       id="path17" />
    <path
       d="m 1172.6332,783.01964 q 0.055,0.0287 0.1105,0.0574"
       id="path18" />
    <path
       d="m 1187.4922,767.69075 q 0.104,0.0151 0.2081,0.0301"
       id="path19" />
    <path
       d="m 1156.7226,830.64629 q 0.01,0.0188 0.012,0.0377"
       id="path20" />
    <path
       d="m 1175.2118,816.42167 q 0.044,0.0669 0.087,0.13383"
       id="path21" />
    <path
       d="m 1140.4609,892.8099 q 0,0.0149 -0.01,0.0298"
       id="path22" />
    <path
       d="m 1141.2412,856.09714 q -2e-4,0.0142 -3e-4,0.0284"
       id="path23" />
    <path
       d="m 1104.602,963.68994 q 0,0.011 -0.01,0.0221"
       id="path24" />
    <path
       d="m 1063.8968,988.87936 q 0,0.0161 0,0.0322"
       id="path25" />
    <path
       d="m 1131.5271,936.37686 q -0.01,0.0155 -0.013,0.031"
       id="path26" />
    <path
       d="m 1078.3371,224.9121 q 0.013,-0.005 0.025,-0.009"
       id="path27" />
    <path
       d="m 1161.7784,339.96187 q -0.01,-0.0732 -0.019,-0.14647"
       id="path28" />
    <path
       d="m 1150.757,316.76483 q 0,-0.0365 0.01,-0.073"
       id="path29" />
    <path
       d="m 1121.9461,300.18448 q 0,-0.0104 0.01,-0.0209"
       id="path30" />
    <path
       d="m 1118.3016,252.18575 q 0,-0.003 0.01,-0.007"
       id="path31" />
    <path
       d="m 1132.7775,276.33019 q 0.047,-0.0844 0.093,-0.16874"
       id="path32" />
    <path
       d="m 1206.6669,465.32457 q -0.052,-0.0282 -0.1037,-0.0564"
       id="path33" />
    <path
       d="m 1198.7822,439.06826 q -0.047,-0.0355 -0.094,-0.0711"
       id="path34" />
    <path
       d="m 1190.4501,410.72207 q -0.045,-0.0507 -0.09,-0.10145"
       id="path35" />
    <path
       d="m 1182.8752,354.91227 q -0.032,-0.14731 -0.063,-0.29466"
       id="path36" />
    <path
       d="m 1190.3524,373.32742 q -0.076,-0.19564 -0.1519,-0.39141"
       id="path37" />
    <path
       d="m 1218.7362,531.7837 q -0.07,-0.0234 -0.1392,-0.0468"
       id="path38" />
    <path
       d="m 1216.3715,592.68846 q -0.085,-0.0525 -0.171,-0.10499"
       id="path39" />
    <path
       d="m 1226.8379,553.9664 q -0.069,-0.0259 -0.1375,-0.0518"
       id="path40" />
    <path
       d="m 1220.024,483.77114 q -0.069,-0.0326 -0.1383,-0.0651"
       id="path41" />
    <path
       d="m 1224.9738,627.96197 q -0.07,-0.0818 -0.1393,-0.1635"
       id="path42" />
    <path
       d="m 1233.8119,658.02932 q -0.042,-0.1179 -0.084,-0.23573"
       id="path43" />
    <path
       d="m 1188.4725,667.83999 q 0,-0.0352 0,-0.0704"
       id="path44" />
    <path
       d="m 1217.8284,709.15661 q 0.021,-0.0359 0.041,-0.0718"
       id="path45" />
    <path
       d="m 1198.1505,728.52133 q 0.034,-0.0238 0.067,-0.0477"
       id="path46" />
    <path
       d="m 1191.3839,797.39736 q 0.1,0.0733 0.1998,0.14666"
       id="path47" />
    <path
       d="m 1204.7561,779.33237 q 0.038,0.0105 0.076,0.021"
       id="path48" />
    <path
       d="m 1175.4748,853.42438 q 0.01,0.0746 0.016,0.14916"
       id="path49" />
    <path
       d="m 1195.8877,824.76807 q 0.053,0.0893 0.1066,0.17868"
       id="path50" />
    <path
       d="m 1171.0504,890.30148 q -0.01,0.0226 -0.01,0.0452"
       id="path51" />
    <path
       d="m 1159.5618,916.8342 q -0.01,0.0197 -0.015,0.0394"
       id="path52" />
    <path
       d="m 1044.381,1020.8749 q 0,0.015 0,0.03"
       id="path53" />
    <path
       d="m 1024.8579,1041.0123 q 0.011,0.03 0.021,0.06"
       id="path54" />
    <path
       d="m 1114.0636,994.28549 q -0.01,0.0427 -0.016,0.0853"
       id="path55" />
    <path
       d="m 1079.6988,1014.9274 q 2e-4,0.029 4e-4,0.058"
       id="path56" />
    <path
       d="m 1159.5496,947.93344 q -0.018,0.0443 -0.036,0.0887"
       id="path57" />
    <path
       d="m 1137.8987,966.01159 q -0.014,0.0389 -0.028,0.0779"
       id="path58" />
    <path
       d="m 1176.9742,323.07444 q 0.021,-0.18758 0.042,-0.37511"
       id="path59" />
    <path
       d="m 1166.5765,295.61022 q 0,-0.006 0,-0.0121"
       id="path60" />
    <path
       d="m 1150.1021,284.15464 q 0.065,-0.13541 0.1305,-0.2707"
       id="path61" />
    <path
       d="m 1222.5292,447.43346 q -0.074,-0.0594 -0.1489,-0.11877"
       id="path62" />
    <path
       d="m 1209.7761,417.83535 q -0.075,-0.0869 -0.1504,-0.1739"
       id="path63" />
    <path
       d="m 1205.8329,393.38352 q -0.025,-0.0458 -0.05,-0.0916"
       id="path64" />
    <path
       d="m 1194.3405,339.91144 q 0,-0.29251 0.01,-0.585"
       id="path65" />
    <path
       d="m 1201.0926,359.87252 q -0.032,-0.18413 -0.063,-0.36832"
       id="path66" />
    <path
       d="m 1228.4377,511.20661 q -0.098,-0.0376 -0.1954,-0.0752"
       id="path67" />
    <path
       d="m 1241.2708,534.90243 q -0.1447,-0.0565 -0.2894,-0.11285"
       id="path68" />
    <path
       d="m 1237.0173,588.46296 q -0.084,-0.0475 -0.1676,-0.0949"
       id="path69" />
    <path
       d="m 1249.556,552.7733 q -0.2045,-0.0879 -0.4091,-0.17575"
       id="path70" />
    <path
       d="m 1243.4041,569.55793 q -0.2034,-0.0938 -0.407,-0.1874"
       id="path71" />
    <path
       d="m 1242.5217,482.49236 q -0.1331,-0.0801 -0.2662,-0.16011"
       id="path72" />
    <path
       d="m 1243.5339,637.14309 q -0.074,-0.1038 -0.1489,-0.20751"
       id="path73" />
    <path
       d="m 1235.5308,610.14847 q -0.1369,-0.11018 -0.274,-0.22023"
       id="path74" />
    <path
       d="m 1243.7287,703.58578 q 0.029,-0.081 0.057,-0.1621"
       id="path75" />
    <path
       d="m 1255.3508,675.49909 q -0.024,-0.18683 -0.048,-0.3736"
       id="path76" />
    <path
       d="m 1253.6508,656.77066 q -0.073,-0.17871 -0.1457,-0.35726"
       id="path77" />
    <path
       d="m 1235.8977,677.79836 q -0.011,-0.18246 -0.021,-0.3649"
       id="path78" />
    <path
       d="m 1222.576,734.49747 q 0.039,-0.0275 0.078,-0.055"
       id="path79" />
    <path
       d="m 1208.9637,806.79396 q 0.04,0.034 0.079,0.0679"
       id="path80" />
    <path
       d="m 1230.4021,774.82625 q 0.057,0.005 0.1141,0.009"
       id="path81" />
    <path
       d="m 1189.4283,871.24766 q 0,0.10777 -0.01,0.21555"
       id="path82" />
    <path
       d="m 1196.04,843.96711 q 0.04,0.13723 0.08,0.27452"
       id="path83" />
    <path
       d="m 1214.2533,834.69804 q 0.041,0.0796 0.081,0.15924"
       id="path84" />
    <path
       d="m 1194.6412,906.72203 q -0.012,0.0453 -0.024,0.0907"
       id="path85" />
    <path
       d="m 1182.6844,934.69536 q -0.021,0.0558 -0.042,0.11156"
       id="path86" />
    <path
       d="m 1028.6543,1071.9694 q 0.01,0.013 0.019,0.026"
       id="path87" />
    <path
       d="m 972.19044,1086.8819 q 0.006,0 0.0116,0.01"
       id="path88" />
    <path
       d="m 1006.0148,1089.5493 q 0.02,0.018 0.041,0.036"
       id="path89" />
    <path
       d="m 956.16504,1128.9117 q 0.0258,0.01 0.0517,0.014"
       id="path90" />
    <path
       d="m 1070.7286,1036.6617 q 0.015,0.073 0.03,0.1451"
       id="path91" />
    <path
       d="m 1050.4084,1050.211 q 0.017,0.044 0.034,0.088"
       id="path92" />
    <path
       d="m 1133.1383,1011.2512 q -0.012,0.1321 -0.024,0.2641"
       id="path93" />
    <path
       d="m 1110.2481,1019.5268 q -2e-4,0.057 -4e-4,0.1145"
       id="path94" />
    <path
       d="m 1139.3399,990.70985 q -0.019,0.0805 -0.038,0.16109"
       id="path95" />
    <path
       d="m 1094.759,1038.1233 q 0.01,0.051 0.018,0.1026"
       id="path96" />
    <path
       d="m 1164.2973,972.5095 q -0.024,0.0726 -0.048,0.14531"
       id="path97" />
    <path
       d="m 1237.2888,432.00138 q -0.1696,-0.20792 -0.3391,-0.41597"
       id="path98" />
    <path
       d="m 1242.7919,454.1728 q -0.1469,-0.13268 -0.2938,-0.26538"
       id="path99" />
    <path
       d="m 1221.3621,401.11811 q -0.096,-0.17987 -0.1911,-0.35986"
       id="path100" />
    <path
       d="m 1230.0672,416.43011 q -0.1333,-0.20092 -0.2663,-0.40198"
       id="path101" />
    <path
       d="m 1225.3863,378.51781 q -0.082,-0.36923 -0.1618,-0.73875"
       id="path102" />
    <path
       d="m 1217.4427,366.71217 q -0.069,-0.48192 -0.1346,-0.96418"
       id="path103" />
    <path
       d="m 1249.2616,510.283 q -0.1834,-0.0887 -0.3669,-0.17724"
       id="path104" />
    <path
       d="m 1259.5297,530.78616 q -0.1999,-0.0964 -0.3999,-0.19257"
       id="path105" />
    <path
       d="m 1254.8181,600.14976 q -0.1654,-0.11609 -0.3309,-0.23201"
       id="path106" />
    <path
       d="m 1264.5165,560.38806 q -0.1873,-0.0953 -0.3746,-0.19045"
       id="path107" />
    <path
       d="m 1255.1007,581.55171 q -0.2042,-0.11319 -0.4084,-0.22618"
       id="path108" />
    <path
       d="m 1258.7863,473.22991 q -0.1473,-0.12412 -0.2946,-0.24822"
       id="path109" />
    <path
       d="m 1256.9594,494.40386 q -0.155,-0.0971 -0.31,-0.19402"
       id="path110" />
    <path
       d="m 1262.379,631.16102 q -0.1654,-0.20245 -0.3312,-0.40454"
       id="path111" />
    <path
       d="m 1250.9927,618.83223 q -0.1395,-0.13218 -0.2793,-0.26419"
       id="path112" />
    <path
       d="m 1264.2583,695.95189 q 0.021,-0.12165 0.042,-0.24335"
       id="path113" />
    <path
       d="m 1245.3746,725.42687 q 0.047,-0.0548 0.095,-0.10974"
       id="path114" />
    <path
       d="m 1272.3258,680.44402 q -0.019,-0.27278 -0.04,-0.54548"
       id="path115" />
    <path
       d="m 1269.203,648.63477 q -0.1583,-0.29762 -0.3176,-0.59466"
       id="path116" />
    <path
       d="m 1269.6799,663.92125 q -0.092,-0.29922 -0.1851,-0.59808"
       id="path117" />
    <path
       d="m 1242.3057,749.90085 q 0.053,-0.0228 0.1051,-0.0456"
       id="path118" />
    <path
       d="m 1230.3849,818.83405 q 0.055,0.0577 0.1105,0.11549"
       id="path119" />
    <path
       d="m 1254.2175,771.31373 q 0.052,-0.004 0.1045,-0.008"
       id="path120" />
    <path
       d="m 1241.3048,796.28886 q 0.06,0.0257 0.1199,0.0514"
       id="path121" />
    <path
       d="m 1209.5731,866.55193 q 0.014,0.17525 0.028,0.35052"
       id="path122" />
    <path
       d="m 1201.276,888.20333 q -0.02,0.15402 -0.041,0.30803"
       id="path123" />
    <path
       d="m 1232.2801,846.76977 q 0.068,0.16628 0.1357,0.33268"
       id="path124" />
    <path
       d="m 1219.7647,906.32064 q -0.029,0.15617 -0.058,0.31232"
       id="path125" />
    <path
       d="m 1213.1139,923.75477 q -0.048,0.17302 -0.097,0.34601"
       id="path126" />
    <path
       d="m 1188.5791,957.82093 q -0.038,0.10883 -0.076,0.21766"
       id="path127" />
    <path
       d="m 1205.4227,941.94164 q -0.056,0.17062 -0.1124,0.34124"
       id="path128" />
    <path
       d="m 884.61832,1185.0226 q 0.0175,0 0.035,0"
       id="path129" />
    <path
       d="m 1029.6851,1102.4149 q 0.039,0.028 0.078,0.055"
       id="path130" />
    <path
       d="m 1052.3883,1091.0662 q 0.057,0.056 0.1131,0.1112"
       id="path131" />
    <path
       d="m 983.83389,1118.8095 q 0.018,0.01 0.0359,0.014"
       id="path132" />
    <path
       d="m 1012.5822,1116.7292 q 0.077,0.036 0.1543,0.072"
       id="path133" />
    <path
       d="m 970.15517,1153.1832 q 0.0882,0 0.17642,0"
       id="path134" />
    <path
       d="m 947.32414,1155.4949 q 0.0385,4e-4 0.077,7e-4"
       id="path135" />
    <path
       d="m 912.01543,1175.8075 q 0.0494,-0.01 0.0987,-0.011"
       id="path136" />
    <path
       d="m 1079.8583,1057.4449 q 0.023,0.055 0.045,0.1108"
       id="path137" />
    <path
       d="m 1152.1572,1015.865 q -0.017,0.2831 -0.033,0.5661"
       id="path138" />
    <path
       d="m 1128.5652,1030.2799 q 0.01,0.1376 0.02,0.2752"
       id="path139" />
    <path
       d="m 1142.9259,1028.1984 q 0.018,0.3976 0.038,0.795"
       id="path140" />
    <path
       d="m 1160.4968,997.13445 q -0.076,0.39057 -0.1516,0.78132"
       id="path141" />
    <path
       d="m 1112.3197,1055.3119 q 0.044,0.1293 0.088,0.2586"
       id="path142" />
    <path
       d="m 1183.6127,984.11079 q -0.036,0.13986 -0.072,0.27975"
       id="path143" />
    <path
       d="m 1248.0264,420.41809 q -0.1788,-0.33172 -0.357,-0.66377"
       id="path144" />
    <path
       d="m 1251.3581,439.17951 q -0.1975,-0.26009 -0.3947,-0.52035"
       id="path145" />
    <path
       d="m 1260.1024,456.07447 q -0.2261,-0.25275 -0.4521,-0.50558"
       id="path146" />
    <path
       d="m 1234.6693,390.1266 q -0.071,-0.24939 -0.1412,-0.49894"
       id="path147" />
    <path
       d="m 1241.8218,405.04774 q -0.093,-0.23164 -0.1865,-0.46344"
       id="path148" />
    <path
       d="m 1208.9739,376.19161 q -0.059,-0.1879 -0.1172,-0.3759"
       id="path149" />
    <path
       d="m 1266.0278,514.38055 q -0.2142,-0.12461 -0.4285,-0.24903"
       id="path150" />
    <path
       d="m 1270.3926,543.60474 q -0.1617,-0.0861 -0.3234,-0.17206"
       id="path151" />
    <path
       d="m 1275.9734,527.33323 q -0.3168,-0.19317 -0.6338,-0.38588"
       id="path152" />
    <path
       d="m 1272.1072,599.43159 q -0.2017,-0.15204 -0.4036,-0.30377"
       id="path153" />
    <path
       d="m 1281.4739,562.55449 q -0.264,-0.16234 -0.5282,-0.32428"
       id="path154" />
    <path
       d="m 1272.8923,575.29087 q -0.2344,-0.14016 -0.4689,-0.28"
       id="path155" />
    <path
       d="m 1274.3806,498.24712 q -0.2006,-0.15416 -0.4012,-0.30819"
       id="path156" />
    <path
       d="m 1277.7977,635.17566 q -0.1643,-0.22751 -0.3293,-0.45461"
       id="path157" />
    <path
       d="m 1269.133,616.73052 q -0.1606,-0.15327 -0.3213,-0.3063"
       id="path158" />
    <path
       d="m 1284.2091,696.21141 q 0.045,-0.28954 0.089,-0.57928"
       id="path159" />
    <path
       d="m 1277.2412,711.10273 q 0.085,-0.20311 0.1692,-0.40651"
       id="path160" />
    <path
       d="m 1268.1846,725.72473 q 0.057,-0.0735 0.1133,-0.14701"
       id="path161" />
    <path
       d="m 1287.9543,679.00696 q -0.03,-0.31344 -0.06,-0.62674"
       id="path162" />
    <path
       d="m 1281.7154,656.15162 q -0.138,-0.33501 -0.2775,-0.66946"
       id="path163" />
    <path
       d="m 1266.3399,751.2223 q 0.058,-0.0293 0.1164,-0.0587"
       id="path164" />
    <path
       d="m 1252.6369,820.21153 q 0.059,0.0533 0.1182,0.10658"
       id="path165" />
    <path
       d="m 1276.3323,781.95774 q 0.1136,0.003 0.2273,0.006"
       id="path166" />
    <path
       d="m 1264.5543,798.79242 q 0.08,0.0292 0.1598,0.0584"
       id="path167" />
    <path
       d="m 1223.876,877.56242 q 0.01,0.22625 0.012,0.45251"
       id="path168" />
    <path
       d="m 1249.8754,850.2422 q 0.1124,0.2521 0.2242,0.5045"
       id="path169" />
    <path
       d="m 1238.9903,863.40182 q 0.032,0.1379 0.063,0.27583"
       id="path170" />
    <path
       d="m 1232.1996,920.14587 q -0.03,0.14609 -0.06,0.29215"
       id="path171" />
    <path
       d="m 1235.3922,896.24359 q -0.019,0.26409 -0.039,0.52814"
       id="path172" />
    <path
       d="m 1223.5617,938.33191 q -0.028,0.10249 -0.056,0.20499"
       id="path173" />
    <path
       d="m 1205.1025,969.65535 q -0.093,0.32412 -0.185,0.64831"
       id="path174" />
    <path
       d="m 1214.8778,957.18149 q -0.052,0.17755 -0.1046,0.35511"
       id="path175" />
    <path
       d="m 905.41328,1206.7567 q 0.085,-0.028 0.17007,-0.055"
       id="path176" />
    <path
       d="m 862.27128,1205.1575 q 0.0253,0 0.0505,-0.01"
       id="path177" />
    <path
       d="m 885.08915,1215.0989 q 0.0927,-0.026 0.18545,-0.053"
       id="path178" />
    <path
       d="m 831.33996,1227.8276 q 0.0394,-9e-4 0.0789,0"
       id="path179" />
    <path
       d="m 1033.1009,1127.2112 q 0.1017,0.035 0.2033,0.07"
       id="path180" />
    <path
       d="m 1053.5647,1109.9175 q 0.14,0.087 0.2801,0.1744"
       id="path181" />
    <path
       d="m 1071.4995,1102.6276 q 0.1675,0.1306 0.3352,0.261"
       id="path182" />
    <path
       d="m 1070.0873,1077.4408 q 0.062,0.088 0.1247,0.176"
       id="path183" />
    <path
       d="m 1001.6656,1142.4578 q 0.1639,0.023 0.3279,0.046"
       id="path184" />
    <path
       d="m 984.36179,1169.6717 q 0.14704,-0.024 0.29409,-0.047"
       id="path185" />
    <path
       d="m 959.65787,1172.249 q 0.10583,-0.017 0.21165,-0.035"
       id="path186" />
    <path
       d="m 947.67777,1181.6459 q 0.31959,-0.076 0.63918,-0.1523"
       id="path187" />
    <path
       d="m 929.40495,1193.5223 q 0.1011,-0.031 0.2022,-0.062"
       id="path188" />
    <path
       d="m 1095.7909,1075.1807 q 0.078,0.1239 0.1558,0.2477"
       id="path189" />
    <path
       d="m 1167.5537,1014.0448 q -0.014,0.1923 -0.027,0.3847"
       id="path190" />
    <path
       d="m 1161.0444,1028.5687 q 0.014,0.2943 0.029,0.5885"
       id="path191" />
    <path
       d="m 1141.1713,1044.9698 q 0.052,0.2513 0.1049,0.5023"
       id="path192" />
    <path
       d="m 1174.2005,998.09509 q -0.041,0.22272 -0.081,0.4455"
       id="path193" />
    <path
       d="m 1115.5205,1074.4566 q 0.082,0.1383 0.1647,0.2764"
       id="path194" />
    <path
       d="m 1201.5879,990.59534 q -0.056,0.28516 -0.1123,0.5704"
       id="path195" />
    <path
       d="m 1259.1217,428.98596 q -0.2336,-0.43855 -0.4661,-0.87766"
       id="path196" />
    <path
       d="m 1274.4275,453.43831 q -0.1633,-0.2444 -0.3264,-0.48893"
       id="path197" />
    <path
       d="m 1281.9981,511.56439 q -0.3429,-0.25769 -0.6861,-0.51491"
       id="path198" />
    <path
       d="m 1290.0157,528.5908 q -0.351,-0.26025 -0.7024,-0.5199"
       id="path199" />
    <path
       d="m 1288.0976,597.43185 q -0.2242,-0.18492 -0.4488,-0.36943"
       id="path200" />
    <path
       d="m 1295.4833,568.01581 q -0.324,-0.23854 -0.6487,-0.47638"
       id="path201" />
    <path
       d="m 1287.2526,581.64144 q -0.213,-0.15235 -0.4262,-0.30439"
       id="path202" />
    <path
       d="m 1272.7922,479.49577 q -0.2834,-0.26943 -0.5669,-0.53877"
       id="path203" />
    <path
       d="m 1286.5644,472.68564 q -0.017,-0.0227 -0.034,-0.0454"
       id="path204" />
    <path
       d="m 1293.2327,633.23027 q -0.2431,-0.34664 -0.4874,-0.69236"
       id="path205" />
    <path
       d="m 1285.9338,616.50797 q -0.1971,-0.20347 -0.3946,-0.40654"
       id="path206" />
    <path
       d="m 1292.4075,709.16445 q 0.102,-0.28204 0.2028,-0.56453"
       id="path207" />
    <path
       d="m 1297.8908,689.29719 q 0.02,-0.38361 0.037,-0.76731"
       id="path208" />
    <path
       d="m 1288.1371,723.94982 q 0.088,-0.1322 0.1759,-0.26461"
       id="path209" />
    <path
       d="m 1300.5616,670.96528 q -0.088,-0.45445 -0.1777,-0.90838"
       id="path210" />
    <path
       d="m 1295.5561,652.88408 q -0.1764,-0.40614 -0.3548,-0.81142"
       id="path211" />
    <path
       d="m 1286.7874,762.56705 q 0.1117,-0.0387 0.2233,-0.0774"
       id="path212" />
    <path
       d="m 1288.371,743.38418 q 0.1595,-0.12409 0.3188,-0.24857"
       id="path213" />
    <path
       d="m 1269.5155,834.81435 q 0.244,0.28783 0.4871,0.57634"
       id="path214" />
    <path
       d="m 1274.8976,821.82097 q 0.1731,0.13489 0.3461,0.26999"
       id="path215" />
    <path
       d="m 1281.6897,801.64174 q 0.2414,0.082 0.4829,0.16418"
       id="path216" />
    <path
       d="m 1293.8978,792.33151 q 0.394,0.0531 0.788,0.10595"
       id="path217" />
    <path
       d="m 1295.4327,774.79275 q 0.3795,-0.0595 0.759,-0.11992"
       id="path218" />
    <path
       d="m 1240.3952,879.99911 q 0.019,0.27535 0.038,0.55074"
       id="path219" />
    <path
       d="m 1254.4712,865.19689 q 0.1066,0.3841 0.2118,0.76856"
       id="path220" />
    <path
       d="m 1265.5043,849.53324 q 0.1746,0.32231 0.3481,0.64516"
       id="path221" />
    <path
       d="m 1248.6808,929.46957 q -0.067,0.38848 -0.1351,0.77688"
       id="path222" />
    <path
       d="m 1247.2033,908.59376 q -0.027,0.27468 -0.055,0.54933"
       id="path223" />
    <path
       d="m 1238.0711,953.17995 q -0.072,0.31096 -0.1441,0.62192"
       id="path224" />
    <path
       d="m 1216.1663,979.17676 q -0.046,0.2029 -0.092,0.40583"
       id="path225" />
    <path
       d="m 1228.951,968.03784 q -0.057,0.24597 -0.1146,0.49197"
       id="path226" />
    <path
       d="m 919.51459,1223.2389 q 0.10072,-0.053 0.20143,-0.1058"
       id="path227" />
    <path
       d="m 859.05958,1233.2439 q 0.006,0 0.011,0"
       id="path228" />
    <path
       d="m 893.58116,1234.6197 q 0.0646,-0.029 0.12913,-0.058"
       id="path229" />
    <path
       d="m 802.2195,1257.4915 q 0.0232,0 0.0464,0.01"
       id="path230" />
    <path
       d="m 1052.9192,1133.1832 q 0.2637,0.073 0.5275,0.1463"
       id="path231" />
    <path
       d="m 1028.014,1147.2749 q 0.2606,0.023 0.5212,0.047"
       id="path232" />
    <path
       d="m 1067.6406,1121.7563 q 0.2369,0.1064 0.4738,0.2125"
       id="path233" />
    <path
       d="m 1088.5315,1102.2301 q 0.1434,0.1162 0.2871,0.2323"
       id="path234" />
    <path
       d="m 1009.6766,1158.9931 q 0.1906,-0.01 0.3812,-0.019"
       id="path235" />
    <path
       d="m 998.05628,1182.7617 q 0.26046,-0.084 0.52097,-0.1674"
       id="path236" />
    <path
       d="m 979.63812,1188.0177 q 0.25032,-0.09 0.50068,-0.18"
       id="path237" />
    <path
       d="m 965.37495,1192.1587 q 0.35411,-0.1348 0.7083,-0.2694"
       id="path238" />
    <path
       d="m 950.78438,1196.0454 q 0.10295,-0.04 0.20591,-0.08"
       id="path239" />
    <path
       d="m 1179.4782,1026.9261 q 0.014,0.3511 0.03,0.7021"
       id="path240" />
    <path
       d="m 1184.7628,1010.5849 q -0.025,0.2861 -0.049,0.5722"
       id="path241" />
    <path
       d="m 1169.0277,1041.6229 q 0.054,0.3098 0.1085,0.6195"
       id="path242" />
    <path
       d="m 1155.9994,1051.0642 q 0.07,0.2571 0.1402,0.514"
       id="path243" />
    <path
       d="m 1135.4426,1059.943 q 0.064,0.1694 0.129,0.3387"
       id="path244" />
    <path
       d="m 1121.5784,1091.9653 q 0.099,0.1073 0.1973,0.2146"
       id="path245" />
    <path
       d="m 1133.577,1078.6054 q 0.1147,0.1764 0.2297,0.3527"
       id="path246" />
    <path
       d="m 1207.2,1004.9069 q -0.035,0.3527 -0.07,0.7054"
       id="path247" />
    <path
       d="m 1302.4115,603.03818 q -0.3421,-0.33804 -0.6852,-0.67496"
       id="path248" />
    <path
       d="m 1302.8352,584.91605 q -0.3237,-0.27823 -0.6481,-0.55564"
       id="path249" />
    <path
       d="m 1305.225,700.97917 q 0.105,-0.47309 0.2067,-0.94689"
       id="path250" />
    <path
       d="m 1300.891,737.48131 q 0.2889,-0.28789 0.5764,-0.57727"
       id="path251" />
    <path
       d="m 1306.9782,762.63515 q 0.3584,-0.14585 0.7162,-0.29286"
       id="path252" />
    <path
       d="m 1290.0617,814.44572 q 0.4299,0.22925 0.8594,0.4592"
       id="path253" />
    <path
       d="m 1254.2001,887.36045 q 0.01,0.15537 0.021,0.31075"
       id="path254" />
    <path
       d="m 1268.1575,866.27861 q 0.066,0.19952 0.1317,0.39916"
       id="path255" />
    <path
       d="m 1251.6928,942.92162 q -0.073,0.39785 -0.1467,0.79566"
       id="path256" />
    <path
       d="m 1258.9631,920.28784 q -0.048,0.46031 -0.097,0.92053"
       id="path257" />
    <path
       d="m 1261.8762,903.16502 q 0,0.35194 -0.01,0.70387"
       id="path258" />
    <path
       d="m 1245.2609,966.20932 q -0.09,0.47573 -0.1794,0.95153"
       id="path259" />
    <path
       d="m 1229.2344,990.28045 q -0.054,0.37508 -0.1075,0.75025"
       id="path260" />
    <path
       d="m 938.89893,1216.8948 q 0.18828,-0.1058 0.37659,-0.2116"
       id="path261" />
    <path
       d="m 919.83996,1243.6323 q 0.1312,-0.093 0.26238,-0.1861"
       id="path262" />
    <path
       d="m 936.58824,1234.3964 q 0.1651,-0.1217 0.33022,-0.2433"
       id="path263" />
    <path
       d="m 880.46984,1261.1508 q 0.0897,-0.044 0.17935,-0.088"
       id="path264" />
    <path
       d="m 832.10813,1255.8451 q 0.0116,-9e-4 0.0232,0"
       id="path265" />
    <path
       d="m 853.20293,1267.9267 q 0.0811,-0.022 0.16224,-0.044"
       id="path266" />
    <path
       d="m 757.01521,1293.1545 q 0.038,0.027 0.0759,0.055"
       id="path267" />
    <path
       d="m 791.18657,1286.3761 q 0.0518,0.015 0.1036,0.031"
       id="path268" />
    <path
       d="m 815.38911,1282.9442 q 0.10273,0.01 0.20547,0.012"
       id="path269" />
    <path
       d="m 1044.3807,1146.3464 q 0.2794,0.029 0.5588,0.058"
       id="path270" />
    <path
       d="m 1066.2366,1141.4792 q 0.2133,0.037 0.4266,0.073"
       id="path271" />
    <path
       d="m 1032.0744,1162.6771 q 0.2662,-0.026 0.5323,-0.052"
       id="path272" />
    <path
       d="m 1083.1953,1125.3697 q 0.1782,0.072 0.3565,0.1439"
       id="path273" />
    <path
       d="m 1098.842,1116.7241 q 0.1822,0.1003 0.3646,0.2004"
       id="path274" />
    <path
       d="m 1015.8065,1175.5018 q 0.3149,-0.078 0.6299,-0.1559"
       id="path275" />
    <path
       d="m 998.04438,1198.4532 q 0.24264,-0.1266 0.4854,-0.253"
       id="path276" />
    <path
       d="m 976.40096,1203.5235 q 0.31765,-0.1716 0.63548,-0.3429"
       id="path277" />
    <path
       d="m 1193.7458,1025.1227 q 0.013,0.3427 0.026,0.6854"
       id="path278" />
    <path
       d="m 1186.6707,1039.3793 q 0.063,0.3882 0.1266,0.7762"
       id="path279" />
    <path
       d="m 1179.7408,1052.0637 q 0.1091,0.3767 0.2197,0.753"
       id="path280" />
    <path
       d="m 1149.6984,1065.5896 q 0.1439,0.3205 0.2891,0.6405"
       id="path281" />
    <path
       d="m 1165.0679,1064.0431 q 0.1421,0.3306 0.2853,0.6608"
       id="path282" />
    <path
       d="m 1140.1477,1096.2578 q 0.2309,0.2284 0.4624,0.4562"
       id="path283" />
    <path
       d="m 1130.0812,1109.0224 q 0.2458,0.1734 0.4919,0.3463"
       id="path284" />
    <path
       d="m 1150.5476,1080.5969 q 0.1718,0.253 0.3443,0.5055"
       id="path285" />
    <path
       d="m 1207.1995,1019.2432 q 0,0.2907 0,0.5813"
       id="path286" />
    <path
       d="m 1221.4888,1006.0724 q -0.031,0.4524 -0.06,0.9049"
       id="path287" />
    <path
       d="m 1318.6048,568.08642 q -0.271,-0.27129 -0.5425,-0.54204"
       id="path288" />
    <path
       d="m 1315.9703,553.95175 q -0.1127,-0.11049 -0.2256,-0.22089"
       id="path289" />
    <path
       d="m 1306.3687,725.32999 q 0.2694,-0.40593 0.536,-0.81364"
       id="path290" />
    <path
       d="m 1284.3683,856.35772 q 0.2377,0.43383 0.4738,0.86856"
       id="path291" />
    <path
       d="m 1272.7294,889.9048 q 0.034,0.26104 0.067,0.52215"
       id="path292" />
    <path
       d="m 1258.0643,954.99692 q -0.069,0.42819 -0.1379,0.85637"
       id="path293" />
    <path
       d="m 1264.9723,939.74921 q -0.045,0.3456 -0.09,0.69116"
       id="path294" />
    <path
       d="m 1254.1116,975.37096 q -0.064,0.46945 -0.1269,0.93899"
       id="path295" />
    <path
       d="m 690.99581,1317.0938 q 0.0312,0.1017 0.0623,0.2034"
       id="path296" />
    <path
       d="m 716.40201,1319.7457 q 0.0349,0.068 0.0699,0.1363"
       id="path297" />
    <path
       d="m 955.57488,1213.8718 q 0.19276,-0.1156 0.38557,-0.231"
       id="path298" />
    <path
       d="m 903.35984,1252.1015 q 0.1101,-0.071 0.22017,-0.1413"
       id="path299" />
    <path
       d="m 932.72548,1256.9472 q 0.1191,-0.1148 0.23821,-0.2295"
       id="path300" />
    <path
       d="m 953.60278,1237.0771 q 0.19782,-0.1751 0.39575,-0.3501"
       id="path301" />
    <path
       d="m 880.40305,1282.2469 q 0.22023,-0.1276 0.44029,-0.2555"
       id="path302" />
    <path
       d="m 898.39323,1272.2774 q 0.16109,-0.1172 0.32209,-0.2346"
       id="path303" />
    <path
       d="m 837.69106,1287.3837 q 0.17961,-0.028 0.35918,-0.056"
       id="path304" />
    <path
       d="m 864.42711,1286.8794 q 0.17192,-0.073 0.34375,-0.1455"
       id="path305" />
    <path
       d="m 771.52924,1313.6804 q 0.11688,0.071 0.23384,0.1415"
       id="path306" />
    <path
       d="m 732.12392,1296.6753 q 0.0278,0.032 0.0555,0.064"
       id="path307" />
    <path
       d="m 749.48942,1317.1406 q 0.11051,0.1095 0.2211,0.2188"
       id="path308" />
    <path
       d="m 804.5685,1306.7536 q 0.14329,0.026 0.28662,0.053"
       id="path309" />
    <path
       d="m 1050.7394,1160.5398 q 0.2545,-0.019 0.5091,-0.037"
       id="path310" />
    <path
       d="m 1082.0795,1147.4681 q 0.261,0.025 0.522,0.05"
       id="path311" />
    <path
       d="m 1037.501,1177.5296 q 0.2655,-0.076 0.5311,-0.1522"
       id="path312" />
    <path
       d="m 1099.1685,1132.6917 q 0.2922,0.088 0.5844,0.1766"
       id="path313" />
    <path
       d="m 1115.9904,1116.6875 q 0.2921,0.1635 0.5845,0.3264"
       id="path314" />
    <path
       d="m 1024.53,1187.4524 q 0.2498,-0.1023 0.4998,-0.2043"
       id="path315" />
    <path
       d="m 1001.3015,1213.8015 q 0.3134,-0.237 0.6272,-0.4734"
       id="path316" />
    <path
       d="m 1013.4271,1201.5433 q 0.2988,-0.1776 0.5978,-0.3547"
       id="path317" />
    <path
       d="m 974.19733,1217.592 q 0.10277,-0.074 0.20557,-0.148"
       id="path318" />
    <path
       d="m 1200.3243,1038.0519 q 0.072,0.4477 0.1459,0.895"
       id="path319" />
    <path
       d="m 1193.4473,1051.3994 q 0.13,0.4449 0.2621,0.8892"
       id="path320" />
    <path
       d="m 1169.1145,1077.7135 q 0.2226,0.3522 0.4467,0.7035"
       id="path321" />
    <path
       d="m 1149.3058,1107.8722 q 0.2936,0.2151 0.5878,0.4294"
       id="path322" />
    <path
       d="m 1135.4477,1123.236 q 0.3225,0.147 0.6452,0.2934"
       id="path323" />
    <path
       d="m 1159.924,1092.4403 q 0.2206,0.2409 0.4419,0.4811"
       id="path324" />
    <path
       d="m 1222.4095,1021.4733 q 0.023,0.4837 0.047,0.9672"
       id="path325" />
    <path
       d="m 1214.6452,1032.6923 q 0.062,0.4759 0.1251,0.9515"
       id="path326" />
    <path
       d="m 1325.9357,581.10368 q 0,-0.003 -0.01,-0.006"
       id="path327" />
    <path
       d="m 1310.1291,839.15218 q 0.2648,0.24463 0.5291,0.48978"
       id="path328" />
    <path
       d="m 1311.4899,826.0906 q 0.4055,0.2589 0.8106,0.51856"
       id="path329" />
    <path
       d="m 1324.5845,813.29303 q 0.3846,0.13581 0.7691,0.27183"
       id="path330" />
    <path
       d="m 1327.1664,789.1835 q 0.4946,-0.011 0.9891,-0.0229"
       id="path331" />
    <path
       d="m 604.50488,1330.0232 q -4.6e-4,0 -9.3e-4,0.01"
       id="path332" />
    <path
       d="m 679.93228,1333.7942 q 0.0205,0.1755 0.0408,0.3509"
       id="path333" />
    <path
       d="m 637.53812,1328.4963 q -0.006,0.1371 -0.0116,0.2741"
       id="path334" />
    <path
       d="m 661.44184,1336.6775 q -2.1e-4,0.017 -4.2e-4,0.035"
       id="path335" />
    <path
       d="m 703.12395,1333.9406 q 0.0392,0.1329 0.0783,0.2658"
       id="path336" />
    <path
       d="m 726.7314,1339.7624 q 0.0429,0.084 0.0858,0.1681"
       id="path337" />
    <path
       d="m 915.60872,1267.4575 q 0.1526,-0.1351 0.30516,-0.2702"
       id="path338" />
    <path
       d="m 951.10451,1256.9387 q 0.1657,-0.1922 0.3315,-0.3843"
       id="path339" />
    <path
       d="m 941.03094,1273.3425 q 0.17642,-0.2271 0.35291,-0.4542"
       id="path340" />
    <path
       d="m 969.4736,1237.5014 q 0.23891,-0.2392 0.47809,-0.478"
       id="path341" />
    <path
       d="m 881.62562,1298.2744 q 0.092,-0.06 0.18391,-0.1206"
       id="path342" />
    <path
       d="m 907.631,1286.9981 q 0.21804,-0.2059 0.43591,-0.412"
       id="path343" />
    <path
       d="m 834.12609,1304.8961 q 0.10654,-0.014 0.21306,-0.028"
       id="path344" />
    <path
       d="m 862.3629,1304.4886 q 0.18132,-0.079 0.36251,-0.1593"
       id="path345" />
    <path
       d="m 776.47426,1332.4465 q 0.21697,0.1291 0.43423,0.2578"
       id="path346" />
    <path
       d="m 790.04375,1319.4968 q 0.22038,0.083 0.44096,0.1644"
       id="path347" />
    <path
       d="m 740.14343,1272.2803 q 0.006,0.01 0.0129,0.011"
       id="path348" />
    <path
       d="m 753.71724,1335.3665 q 0.16342,0.1683 0.32705,0.3363"
       id="path349" />
    <path
       d="m 817.60032,1320.6636 q 0.1276,0.01 0.25521,0.013"
       id="path350" />
    <path
       d="m 1059.1171,1174.241 q 0.3856,-0.098 0.7713,-0.1955"
       id="path351" />
    <path
       d="m 1066.6155,1158.12 q 0.3057,-0.013 0.6115,-0.027"
       id="path352" />
    <path
       d="m 1091.9216,1159.9772 q 0.4117,-0.029 0.8234,-0.058"
       id="path353" />
    <path
       d="m 1111.7168,1141.1182 q 0.3977,0.074 0.7955,0.1474"
       id="path354" />
    <path
       d="m 1122.6795,1129.7025 q 0.3667,0.1294 0.7336,0.2581"
       id="path355" />
    <path
       d="m 1031.5459,1201.5679 q 0.3567,-0.2233 0.714,-0.4457"
       id="path356" />
    <path
       d="m 1004.8157,1227.15 q 0.2322,-0.2343 0.4649,-0.4681"
       id="path357" />
    <path
       d="m 1014.9589,1215.8031 q 0.3213,-0.2668 0.6431,-0.5328"
       id="path358" />
    <path
       d="m 990.09791,1221.8645 q 0.27033,-0.2296 0.54102,-0.4588"
       id="path359" />
    <path
       d="m 1182.0533,1073.2415 q 0.2092,0.3689 0.4199,0.7368"
       id="path360" />
    <path
       d="m 1179.0754,1086.8272 q 0.2838,0.3537 0.5691,0.7061"
       id="path361" />
    <path
       d="m 1330.2213,610.62366 q -0.023,-0.0322 -0.045,-0.0643"
       id="path362" />
    <path
       d="m 1335.7955,648.40607 q -0.027,-0.0783 -0.054,-0.15651"
       id="path363" />
    <path
       d="m 1339.6046,679.23693 q -6e-4,-0.0349 0,-0.0698"
       id="path364" />
    <path
       d="m 1338.7595,765.36798 q 0.1435,-0.062 0.287,-0.12427"
       id="path365" />
    <path
       d="m 1324.3768,839.24007 q 0.2743,0.22442 0.5482,0.44929"
       id="path366" />
    <path
       d="m 1335.7989,805.57965 q 0.038,0.007 0.077,0.015"
       id="path367" />
    <path
       d="m 1271.046,976.83725 q -0.026,0.35258 -0.051,0.70518"
       id="path368" />
    <path
       d="m 1279.0452,962.81227 q -0.033,0.45121 -0.066,0.90243"
       id="path369" />
    <path
       d="m 1268.4444,995.528 q 0,0.39726 -0.01,0.79452"
       id="path370" />
    <path
       d="m 1250.5592,1019.6765 q 0.039,0.4231 0.079,0.846"
       id="path371" />
    <path
       d="m 1260.8657,1007.948 q 0.015,0.3852 0.031,0.7703"
       id="path372" />
    <path
       d="m 927.02189,1280.4025 q 0.16138,-0.1886 0.32275,-0.3773"
       id="path373" />
    <path
       d="m 966.16706,1262.5969 q 0.18969,-0.2753 0.37968,-0.5503"
       id="path374" />
    <path
       d="m 956.44974,1273.8869 q 0.191,-0.2955 0.38226,-0.5909"
       id="path375" />
    <path
       d="m 945.73259,1288.0371 q 0.18246,-0.2969 0.36508,-0.5937"
       id="path376" />
    <path
       d="m 984.05472,1237.3219 q 0.24423,-0.2677 0.48889,-0.535"
       id="path377" />
    <path
       d="m 899.79955,1307.9277 q 0.24123,-0.2328 0.48214,-0.4659"
       id="path378" />
    <path
       d="m 878.37013,1318.5938 q 0.15954,-0.1085 0.31894,-0.2172"
       id="path379" />
    <path
       d="m 915.17086,1300.2056 q 0.20405,-0.24 0.40795,-0.4802"
       id="path380" />
    <path
       d="m 849.76163,1318.4687 q 0.23883,-0.075 0.47746,-0.1497"
       id="path381" />
    <path
       d="m 833.8126,1325.5984 q 0.22925,-0.03 0.45842,-0.061"
       id="path382" />
    <path
       d="m 802.7045,1330.0643 q 0.32354,0.075 0.64735,0.1496"
       id="path383" />
    <path
       d="m 1072.2692,1170.2698 q 0.428,-0.088 0.856,-0.1751"
       id="path384" />
    <path
       d="m 1067.2054,1185.3463 q 0.4155,-0.1722 0.8313,-0.3436"
       id="path385" />
    <path
       d="m 1053.5699,1186.81 q 0.4196,-0.1789 0.8394,-0.3569"
       id="path386" />
    <path
       d="m 1103.1112,1152.3346 q 0.3951,0.013 0.7902,0.025"
       id="path387" />
    <path
       d="m 1086.6516,1172.461 q 0.3574,-0.085 0.7148,-0.1705"
       id="path388" />
    <path
       d="m 1050.3754,1201.8468 q 0.3698,-0.2436 0.7401,-0.4863"
       id="path389" />
    <path
       d="m 1116.6494,1153.8492 q 0.4749,0.01 0.9498,0.011"
       id="path390" />
    <path
       d="m 1036.9164,1213.8999 q 0.3498,-0.2983 0.7005,-0.5957"
       id="path391" />
    <path
       d="m 1019.3917,1229.1289 q 0.3021,-0.3373 0.6051,-0.6736"
       id="path392" />
    <path
       d="m 1006.8106,1241.7238 q 0.2689,-0.3642 0.5388,-0.7277"
       id="path393" />
    <path
       d="m 1339.2633,723.05988 q 0.099,-0.16439 0.1971,-0.32901"
       id="path394" />
    <path
       d="m 1339.8189,701.58807 q 0.02,-0.0775 0.04,-0.15498"
       id="path395" />
    <path
       d="m 1321.5924,854.9389 q 0.1681,0.20447 0.3359,0.40919"
       id="path396" />
    <path
       d="m 1305.635,897.79256 q 0.1077,0.46957 0.2142,0.93941"
       id="path397" />
    <path
       d="m 1281.5884,986.57146 q -2e-4,0.10782 -3e-4,0.21565"
       id="path398" />
    <path
       d="m 1292.0804,961.7086 q -8e-4,0.0392 0,0.0785"
       id="path399" />
    <path
       d="m 1296.938,942.51265 q 0,0.29904 0,0.59809"
       id="path400" />
    <path
       d="m 932.41512,1295.6853 q 0.23667,-0.3471 0.47333,-0.6942"
       id="path401" />
    <path
       d="m 979.38475,1256.3017 q 0.21946,-0.323 0.43947,-0.6456"
       id="path402" />
    <path
       d="m 975.74275,1273.6713 q 0.1154,-0.2198 0.23102,-0.4395"
       id="path403" />
    <path
       d="m 965.41463,1285.1221 q 0.13514,-0.274 0.27056,-0.5478"
       id="path404" />
    <path
       d="m 993.44562,1248.0014 q 0.25459,-0.3587 0.51002,-0.7168"
       id="path405" />
    <path
       d="m 1066.4712,1198.4376 q 0.3428,-0.2129 0.686,-0.425"
       id="path406" />
    <path
       d="m 1080.3078,1184.8506 q 0.4,-0.1661 0.8002,-0.3313"
       id="path407" />
    <path
       d="m 1095.9668,1183.1109 q 0.3942,-0.1563 0.7887,-0.3118"
       id="path408" />
    <path
       d="m 1053.845,1214.5733 q 0.2887,-0.2614 0.578,-0.5221"
       id="path409" />
    <path
       d="m 1022.8514,1241.7412 q 0.2711,-0.3988 0.5435,-0.7968"
       id="path410" />
    <path
       d="m 1246.6262,1041.4498 q 0.1206,0.4483 0.2432,0.8961"
       id="path411" />
    <path
       d="m 1323.9534,870.62882 q 0,0.004 0.01,0.009"
       id="path412" />
    <path
       d="m 1316.9772,887.80594 q 0.058,0.15625 0.1152,0.31255"
       id="path413" />
    <path
       d="m 1311.2977,909.231 q 0.013,0.0723 0.027,0.14464"
       id="path414" />
    <path
       d="m 991.34955,1263.2468 q 0.11234,-0.2065 0.22493,-0.4129"
       id="path415" />
    <path
       d="m 990.4846,1280.404 q 0.005,-0.012 0.009,-0.023"
       id="path416" />
    <path
       d="m 1033.2131,1249.1855 q 0.1444,-0.2631 0.2893,-0.526"
       id="path417" />
    <path
       d="m 1011.8825,1266.6203 q 0.098,-0.2305 0.1967,-0.4609"
       id="path418" />
    <path
       d="m 1211.863,1100.6079 q 0.262,0.224 0.5246,0.4472"
       id="path419" />
    <path
       d="m 1222.2438,1086.2893 q 0.1285,0.1531 0.2572,0.306"
       id="path420" />
    <path
       d="m 1184.3997,1133.5466 q 0.2608,0.077 0.5217,0.1541"
       id="path421" />
    <path
       d="m 1112.0246,1200.3942 q 0.359,-0.2501 0.7187,-0.4992"
       id="path422" />
    <path
       d="m 1059.8174,1237.2758 q 0.2387,-0.3702 0.4788,-0.7395"
       id="path423" />
    <path
       d="m 1072.8804,1230.56 q 0.1495,-0.2059 0.2995,-0.4114"
       id="path424" />
    <path
       d="m 1050.3247,1247.9357 q 0,-0.01 0.01,-0.017"
       id="path425" />
    <path
       d="m 1169.9016,1153.8758 q 0,10e-5 0.01,10e-5"
       id="path426" />
    <path
       d="m 1141.4866,1180.0705 q 0,0 0.01,0"
       id="path427" />
    <path
       d="m 1093.948,1215.9362 q 0.2424,-0.2459 0.4854,-0.4912"
       id="path428" />
    <path
       d="m 1453,1503 v -50 h 50"
       fill="currentColor"
       id="path429"
       style="fill:#ffffff" />
  </g>
  <g
     id="4-gold"
     stroke-width="6"
     stroke-linecap="round"
     stroke-linejoin="round"
     stroke="#ffd700"
     transform="scale(0.37795276)">
    <path
       d="m 1275.2693,467.1743 q -0.3219,-0.38363 -0.6437,-0.76738"
       id="path430" />
    <path
       d="m 1264.9431,444.95769 q -0.3138,-0.46505 -0.6268,-0.93062"
       id="path431" />
    <path
       d="m 1288.2227,543.72237 q -0.4168,-0.2806 -0.8343,-0.56024"
       id="path432" />
    <path
       d="m 1290.1618,495.02646 q -0.3795,-0.38922 -0.7592,-0.77816"
       id="path433" />
    <path
       d="m 1294.6278,515.9008 q -0.4223,-0.37141 -0.8453,-0.74212"
       id="path434" />
    <path
       d="m 1297.6269,552.03459 q -0.44,-0.33115 -0.881,-0.66111"
       id="path435" />
    <path
       d="m 1299.0788,621.15071 q -0.3599,-0.43381 -0.7217,-0.86602"
       id="path436" />
    <path
       d="m 1302.7945,642.64644 q -0.2626,-0.48198 -0.5277,-0.96256"
       id="path437" />
    <path
       d="m 1307.0493,713.27605 q 0.2153,-0.50933 0.4266,-1.02031"
       id="path438" />
    <path
       d="m 1311.7935,689.98704 q 0.036,-0.53048 0.068,-1.06119"
       id="path439" />
    <path
       d="m 1307.3576,659.92245 q -0.1925,-0.60237 -0.3893,-1.20337"
       id="path440" />
    <path
       d="m 1277.8925,846.04627 q 0.3034,0.44865 0.6049,0.89858"
       id="path441" />
    <path
       d="m 1290.0535,829.21324 q 0.4742,0.40066 0.9471,0.80297"
       id="path442" />
    <path
       d="m 1303.1497,802.49304 q 0.5457,0.14449 1.0913,0.28909"
       id="path443" />
    <path
       d="m 1306.8918,787.8581 q 0.5528,0.0103 1.1057,0.0197"
       id="path444" />
    <path
       d="m 1241.1263,978.59505 q -0.082,0.49866 -0.1634,0.99745"
       id="path445" />
    <path
       d="m 1309.9679,613.33546 q -0.3482,-0.41315 -0.6981,-0.82491"
       id="path446" />
    <path
       d="m 1307.0457,630.0952 q -0.3209,-0.4734 -0.6442,-0.94522"
       id="path447" />
    <path
       d="m 1313.8736,647.53592 q -0.2195,-0.49072 -0.4416,-0.98026"
       id="path448" />
    <path
       d="m 1310.5855,747.03515 q 0.4298,-0.32416 0.8577,-0.65087"
       id="path449" />
    <path
       d="m 1313.9738,733.72631 q 0.4199,-0.48953 0.8359,-0.98244"
       id="path450" />
    <path
       d="m 1289.9607,844.42764 q 0.3409,0.43119 0.6802,0.86368"
       id="path451" />
    <path
       d="m 1301.2985,831.63054 q 0.471,0.38548 0.9407,0.77245"
       id="path452" />
    <path
       d="m 1302.0963,818.52498 q 0.5086,0.27818 1.0166,0.55734"
       id="path453" />
    <path
       d="m 1312.694,809.71866 q 0.4881,0.16806 0.9761,0.33643"
       id="path454" />
    <path
       d="m 1317.8256,782.73833 q 0.6378,-0.0606 1.2754,-0.12298"
       id="path455" />
    <path
       d="m 1315.8357,795.96778 q 0.5348,0.0619 1.0696,0.12326"
       id="path456" />
    <path
       d="m 1284.8785,869.82816 q 0.1905,0.50625 0.379,1.01328"
       id="path457" />
    <path
       d="m 1270.3234,914.03686 q -0.018,0.58427 -0.037,1.16848"
       id="path458" />
    <path
       d="m 1276.2351,902.54668 q 0.035,0.60899 0.067,1.2181"
       id="path459" />
    <path
       d="m 1239.1385,1000.1603 q -0.039,0.5965 -0.077,1.1932"
       id="path460" />
    <path
       d="m 1245.7484,990.23338 q -0.063,0.62046 -0.1245,1.24111"
       id="path461" />
    <path
       d="m 1188.4928,1062.7494 q 0.2059,0.4853 0.4145,0.9695"
       id="path462" />
    <path
       d="m 1233.426,1011.3953 q 0,0.5867 -0.01,1.1735"
       id="path463" />
    <path
       d="m 1266.7301,965.08196 q -0.059,0.50196 -0.117,1.00396"
       id="path464" />
    <path
       d="m 1271.3141,953.88044 q -0.071,0.64194 -0.1425,1.28388"
       id="path465" />
    <path
       d="m 1278.4051,934.49524 q -0.035,0.54048 -0.07,1.08092"
       id="path466" />
    <path
       d="m 1260.2645,986.64985 q -0.041,0.55155 -0.081,1.1032"
       id="path467" />
    <path
       d="m 1247.2621,1008.5625 q 0,0.6094 0.01,1.2188"
       id="path468" />
    <path
       d="m 1254.306,997.8854 q -0.022,0.5594 -0.041,1.11888"
       id="path469" />
    <path
       d="m 1042.3845,1192.3882 q 0.4652,-0.2317 0.9309,-0.4624"
       id="path470" />
    <path
       d="m 1195.8934,1072.5872 q 0.2946,0.5187 0.5923,1.0356"
       id="path471" />
    <path
       d="m 1162.2964,1113.6027 q 0.4705,0.293 0.9421,0.5842"
       id="path472" />
    <path
       d="m 1148.1698,1122.0251 q 0.5307,0.2531 1.0622,0.5045"
       id="path473" />
    <path
       d="m 1140.2739,1136.7355 q 0.5442,0.1366 1.0887,0.2722"
       id="path474" />
    <path
       d="m 1173.5476,1098.1231 q 0.4188,0.3946 0.8396,0.7871"
       id="path475" />
    <path
       d="m 1235.0595,1022.9721 q 0.051,0.616 0.1049,1.2317"
       id="path476" />
    <path
       d="m 1329.5802,623.86694 q -0.329,-0.54581 -0.6607,-1.08997"
       id="path477" />
    <path
       d="m 1335.6346,777.99617 q 0.6109,-0.13166 1.2214,-0.26534"
       id="path478" />
    <path
       d="m 1282.2433,950.97392 q -0.036,0.54519 -0.073,1.09037"
       id="path479" />
    <path
       d="m 1103.4046,1167.1714 q 0.5566,-0.094 1.1133,-0.1876"
       id="path480" />
    <path
       d="m 1124.9977,1144.2848 q 0.4995,0.071 0.9991,0.1424"
       id="path481" />
    <path
       d="m 1220.9989,1049.341 q 0.1812,0.5986 0.3662,1.196"
       id="path482" />
    <path
       d="m 1201.4452,1082.8844 q 0.3842,0.5156 0.7717,1.0287"
       id="path483" />
    <path
       d="m 1309.2556,864.88638 q 0.2927,0.506 0.5834,1.01311"
       id="path484" />
    <path
       d="m 1306.6898,882.02969 q 0.2009,0.54896 0.3997,1.09865"
       id="path485" />
    <path
       d="m 1300.7603,930.62636 q 0.026,0.57216 0.052,1.14435"
       id="path486" />
    <path
       d="m 1254.7349,1032.4116 q 0.1238,0.6046 0.2508,1.2086"
       id="path487" />
    <path
       d="m 1107.3215,1178.4834 q 0.5327,-0.1763 1.0658,-0.3514"
       id="path488" />
    <path
       d="m 1115.3665,1167.636 q 0.5301,-0.094 1.0604,-0.1872"
       id="path489" />
    <path
       d="m 1038.1489,1226.8412 q 0.3472,-0.3957 0.6959,-0.7902"
       id="path490" />
    <path
       d="m 1009.5593,1254.5099 q 0.2575,-0.4576 0.5164,-0.9144"
       id="path491" />
    <path
       d="m 1142.9832,1158.6365 q 0.6392,-0.035 1.2784,-0.069"
       id="path492" />
    <path
       d="m 1073.424,1210.2034 q 0.421,-0.3585 0.8434,-0.7154"
       id="path493" />
    <path
       d="m 1080.11,1199.309 q 0.4327,-0.2815 0.8663,-0.5617"
       id="path494" />
    <path
       d="m 1052.1165,1228.3131 q 0.3671,-0.4521 0.7362,-0.9025"
       id="path495" />
    <path
       d="m 1129.9848,1167.0489 q 0.6013,-0.1024 1.2028,-0.204"
       id="path496" />
    <path
       d="m 1044.4767,1237.4098 q 0.3129,-0.4602 0.6278,-0.9191"
       id="path497" />
    <path
       d="m 1238.348,1054.5737 q 0.2199,0.5622 0.443,1.1232"
       id="path498" />
    <path
       d="m 1173.7276,1142.7066 q 0.5757,0.095 1.1515,0.19"
       id="path499" />
    <path
       d="m 1152.4669,1164.8771 q 0.5368,-0.076 1.0736,-0.1505"
       id="path500" />
    <path
       d="m 1127.5917,1187.0741 q 0.4528,-0.2123 0.9061,-0.4235"
       id="path501" />
  </g>
  <g
     id="3-bronze"
     stroke-width="6"
     stroke-linecap="round"
     stroke-linejoin="round"
     stroke="#cd9f72"
     transform="scale(0.37795276)">
    <path
       d="m 1303.0002,531.27461 q -0.5948,-0.52938 -1.1912,-1.05701"
       id="path502" />
    <path
       d="m 1308.549,572.06965 q -0.5381,-0.47127 -1.078,-0.9404"
       id="path503" />
    <path
       d="m 1306.2945,559.63348 q -0.5032,-0.42358 -1.0078,-0.84548"
       id="path504" />
    <path
       d="m 1313.5249,670.67454 q -0.1256,-0.71302 -0.2574,-1.42494"
       id="path505" />
    <path
       d="m 1309.281,776.18841 q 0.722,-0.12691 1.4435,-0.25674"
       id="path506" />
    <path
       d="m 1307.748,545.41563 q -0.511,-0.45423 -1.0234,-0.90694"
       id="path507" />
    <path
       d="m 1314.4637,598.81019 q -0.4881,-0.52488 -0.9788,-1.04743"
       id="path508" />
    <path
       d="m 1315.3824,580.45358 q -0.5376,-0.52663 -1.0775,-1.0509"
       id="path509" />
    <path
       d="m 1317.3362,704.91244 q 0.1809,-0.63716 0.3561,-1.27592"
       id="path510" />
    <path
       d="m 1318.4951,717.11733 q 0.3417,-0.70129 0.6761,-1.40609"
       id="path511" />
    <path
       d="m 1323.4889,686.28078 q 0.03,-0.93242 0.05,-1.86514"
       id="path512" />
    <path
       d="m 1322.5016,695.975 q 0.131,-0.82703 0.2529,-1.65543"
       id="path513" />
    <path
       d="m 1318.7011,661.24382 q -0.2189,-0.79446 -0.4448,-1.58692"
       id="path514" />
    <path
       d="m 1322.6938,676.30142 q -0.069,-0.76269 -0.1454,-1.52472"
       id="path515" />
    <path
       d="m 1318.6882,755.17842 q 0.649,-0.38114 1.2953,-0.76694"
       id="path516" />
    <path
       d="m 1320.1625,766.98261 q 0.8041,-0.29143 1.6064,-0.58796"
       id="path517" />
    <path
       d="m 1322.6842,591.79689 q -0.465,-0.52618 -0.9323,-1.05033"
       id="path518" />
    <path
       d="m 1319.9926,608.09425 q -0.476,-0.59039 -0.9551,-1.17822"
       id="path519" />
    <path
       d="m 1320.2553,619.87145 q -0.474,-0.67406 -0.9523,-1.34507"
       id="path520" />
    <path
       d="m 1317.8301,635.13976 q -0.3775,-0.6663 -0.7596,-1.33002"
       id="path521" />
    <path
       d="m 1326.0488,646.56728 q -0.3277,-0.80052 -0.662,-1.59832"
       id="path522" />
    <path
       d="m 1326.9609,710.61399 q 0.3334,-0.88351 0.656,-1.77103"
       id="path523" />
    <path
       d="m 1324.7118,725.45813 q 0.4541,-0.7002 0.9008,-1.40514"
       id="path524" />
    <path
       d="m 1321.5063,741.58285 q 0.7078,-0.65691 1.4084,-1.32153"
       id="path525" />
    <path
       d="m 1328.7896,660.17667 q -0.2096,-0.81694 -0.4264,-1.63201"
       id="path526" />
    <path
       d="m 1327.5866,749.46946 q 0.7142,-0.52486 1.4236,-1.05611"
       id="path527" />
    <path
       d="m 1325.7008,775.27392 q 0.7761,-0.1826 1.5513,-0.3688"
       id="path528" />
    <path
       d="m 1328.8193,762.03504 q 0.6931,-0.32806 1.3842,-0.66045"
       id="path529" />
    <path
       d="m 1301.6275,847.64666 q 0.4485,0.55219 0.8944,1.10645"
       id="path530" />
    <path
       d="m 1294.7302,863.57919 q 0.2982,0.58723 0.5937,1.17588"
       id="path531" />
    <path
       d="m 1287.6654,895.34793 q 0.1109,0.70268 0.2187,1.40583"
       id="path532" />
    <path
       d="m 1287.2186,883.36454 q 0.1805,0.71638 0.3572,1.43368"
       id="path533" />
    <path
       d="m 1281.063,918.92111 q 0,0.71136 -0.01,1.42271"
       id="path534" />
    <path
       d="m 1210.5152,1046.2358 q 0.1725,0.6763 0.3496,1.3514"
       id="path535" />
    <path
       d="m 1204.0208,1058.8912 q 0.2489,0.6378 0.5023,1.2739"
       id="path536" />
    <path
       d="m 1226.9768,1036.0617 q 0.122,0.6787 0.2483,1.3566"
       id="path537" />
    <path
       d="m 1328.2959,635.85693 q -0.4025,-0.79853 -0.8111,-1.59393"
       id="path538" />
    <path
       d="m 1336.4654,711.0475 q 0.3074,-0.78542 0.6065,-1.57399"
       id="path539" />
    <path
       d="m 1335.4148,693.33761 q 0.1414,-1.00179 0.2706,-2.00522"
       id="path540" />
    <path
       d="m 1336.8049,752.81333 q 0.5601,-0.37832 1.1178,-0.76016"
       id="path541" />
    <path
       d="m 1310.5271,853.83958 q 0.4064,0.53461 0.8106,1.07092"
       id="path542" />
    <path
       d="m 1300.0821,873.43361 q 0.2747,0.65621 0.5461,1.31375"
       id="path543" />
    <path
       d="m 1297.3639,890.5008 q 0.1612,0.6654 0.3196,1.33149"
       id="path544" />
    <path
       d="m 1288.1353,906.18 q 0.081,0.89837 0.158,1.7971"
       id="path545" />
    <path
       d="m 1290.5672,933.90622 q -0.01,0.73159 -0.015,1.46317"
       id="path546" />
    <path
       d="m 1291.8223,920.26007 q 0.031,0.80103 0.06,1.60216"
       id="path547" />
    <path
       d="m 1215.0354,1059.401 q 0.2648,0.6458 0.5343,1.2896"
       id="path548" />
    <path
       d="m 1207.1189,1069.2943 q 0.3395,0.6388 0.6837,1.2751"
       id="path549" />
    <path
       d="m 1188.3037,1096.083 q 0.479,0.4707 0.9609,0.9385"
       id="path550" />
    <path
       d="m 1169.3441,1123.3909 q 0.6011,0.2729 1.2031,0.5436"
       id="path551" />
    <path
       d="m 1173.8414,1110.111 q 0.5525,0.3792 1.1069,0.7555"
       id="path552" />
    <path
       d="m 1153.6055,1132.4639 q 0.6787,0.2133 1.358,0.4245"
       id="path553" />
    <path
       d="m 1143.3555,1148.3334 q 0.7926,0.069 1.5852,0.1381"
       id="path554" />
    <path
       d="m 1238.7865,1033.877 q 0.126,0.6915 0.2563,1.3822"
       id="path555" />
    <path
       d="m 1334.5801,741.82833 q 0.6437,-0.60763 1.2815,-1.22134"
       id="path556" />
    <path
       d="m 1297.7313,904.60295 q 0.118,0.81148 0.2327,1.62345"
       id="path557" />
    <path
       d="m 1301.7323,917.5485 q 0.072,0.74197 0.1424,1.48415"
       id="path558" />
    <path
       d="m 1129.5493,1155.959 q 0.6744,-0.012 1.3489,-0.023"
       id="path559" />
    <path
       d="m 1228.4579,1058.0492 q 0.2934,0.7086 0.5924,1.4149"
       id="path560" />
    <path
       d="m 1231.9269,1045.8702 q 0.196,0.689 0.3966,1.3767"
       id="path561" />
    <path
       d="m 1219.4707,1069.3949 q 0.4289,0.781 0.8649,1.5579"
       id="path562" />
    <path
       d="m 1204.9524,1093.6588 q 0.6197,0.6352 1.2445,1.2653"
       id="path563" />
    <path
       d="m 1212.774,1082.6673 q 0.4972,0.6584 0.9999,1.3128"
       id="path564" />
    <path
       d="m 1198.2808,1100.9927 q 0.6601,0.5678 1.3245,1.1306"
       id="path565" />
    <path
       d="m 1188.2788,1107.2027 q 0.6391,0.4712 1.2811,0.9384"
       id="path566" />
    <path
       d="m 1183.0922,1116.3004 q 0.6875,0.3921 1.3771,0.7804"
       id="path567" />
    <path
       d="m 1155.0665,1143.2073 q 0.8293,0.132 1.6589,0.2625"
       id="path568" />
    <path
       d="m 1163.6474,1136.5525 q 0.7886,0.2002 1.5778,0.3982"
       id="path569" />
    <path
       d="m 1112.546,1189.2867 q 0.6005,-0.3006 1.2022,-0.599"
       id="path570" />
    <path
       d="m 1119.2643,1179.6568 q 0.6294,-0.2212 1.2594,-0.4405"
       id="path571" />
    <path
       d="m 1096.4739,1196.5129 q 0.7699,-0.4735 1.5424,-0.9426"
       id="path572" />
    <path
       d="m 1064.4106,1223.5252 q 0.4523,-0.517 0.9073,-1.0317"
       id="path573" />
    <path
       d="m 1235.5625,1065.7575 q 0.3143,0.5984 0.6327,1.1946"
       id="path574" />
    <path
       d="m 1227.9979,1074.1874 q 0.4153,0.6545 0.8358,1.3058"
       id="path575" />
    <path
       d="m 1201.3335,1110.3978 q 0.7715,0.5155 1.5466,1.0256"
       id="path576" />
    <path
       d="m 1192.9014,1116.4292 q 0.8895,0.5021 1.7825,0.998"
       id="path577" />
    <path
       d="m 1155.4078,1153.2578 q 0.7207,0.014 1.4415,0.028"
       id="path578" />
    <path
       d="m 1143.2757,1169.9854 q 0.7895,-0.1678 1.5793,-0.3338"
       id="path579" />
    <path
       d="m 1079.2671,1220.7684 q 0.4962,-0.5505 0.9958,-1.098"
       id="path580" />
    <path
       d="m 1085.4971,1210.182 q 0.6115,-0.5317 1.2262,-1.0596"
       id="path581" />
    <path
       d="m 1099.1107,1205.8637 q 0.5651,-0.4491 1.1326,-0.8953"
       id="path582" />
    <path
       d="m 1189.5426,1124.9498 q 0.8017,0.3409 1.605,0.678"
       id="path583" />
  </g>
  <g
     id="2-silver"
     stroke-width="6"
     stroke-linecap="round"
     stroke-linejoin="round"
     stroke="#c0c0c0"
     transform="scale(0.37795276)">
    <path
       d="m 1332.964,684.93658 q 0.037,-1.11872 0.059,-2.23783"
       id="path584" />
    <path
       d="m 1330.9278,701.48889 q 0.2766,-1.13408 0.5364,-2.27211"
       id="path585" />
    <path
       d="m 1331.5157,670.6251 q -0.1392,-1.03117 -0.2903,-2.06067"
       id="path586" />
    <path
       d="m 1332.0988,718.62183 q 0.5522,-1.07145 1.0882,-2.15106"
       id="path587" />
    <path
       d="m 1330.0316,734.02659 q 0.6775,-0.80344 1.3451,-1.61514"
       id="path588" />
    <path
       d="m 1180.3097,1125.6858 q 1.0082,0.4192 2.0187,0.8325"
       id="path589" />
    <path
       d="m 1172.2618,1134.2074 q 1.1071,0.3185 2.2157,0.632"
       id="path590" />
    <path
       d="m 1214.6012,1091.9426 q 0.7268,0.7662 1.4611,1.5252"
       id="path591" />
  </g>
</svg>
